<?xml version="1.0" encoding="utf-8"?>
<!-- Generator: Adobe Illustrator 26.1.0, SVG Export Plug-In . SVG Version: 6.00 Build 0)  -->
<svg version="1.1" id="Layer_1" xmlns="http://www.w3.org/2000/svg" xmlns:xlink="http://www.w3.org/1999/xlink" x="0px" y="0px"
	 viewBox="0 0 267.6 420.1" style="enable-background:new 0 0 267.6 420.1;" xml:space="preserve">
<style type="text/css">
	.st0{fill:#FFFFFF;}
</style>
<g>
	<path class="st0" d="M55.9,190.9h-6.2c-1.3-0.4-2.8-0.1-3.9,0.8c-1.1,0.8-1.8,2.2-1.8,3.6c0,1.4,0.7,2.7,1.8,3.6
		c1.1,0.8,2.5,1.1,3.9,0.8h6.2c2-0.5,3.3-2.3,3.3-4.3C59.2,193.2,57.9,191.5,55.9,190.9L55.9,190.9z"/>
	<path class="st0" d="M111.5,190.9h-6.4c-2,0.5-3.3,2.3-3.3,4.3s1.4,3.8,3.3,4.3h6.3l0,0c2-0.5,3.3-2.3,3.3-4.3
		C114.8,193.2,113.4,191.5,111.5,190.9L111.5,190.9z"/>
	<path class="st0" d="M132.6,190.9h-6.3l0,0c-2,0.5-3.3,2.3-3.3,4.3s1.4,3.8,3.3,4.3h6.3l0,0c2-0.5,3.3-2.3,3.3-4.3
		C135.9,193.2,134.6,191.5,132.6,190.9z"/>
	<path class="st0" d="M228.8,0H20.1C8.8,0,0,11.8,0,26.9V47c-0.2,3.9,0.7,7.8,2.7,11.2s4.9,6.1,8.4,7.9L25,72
		c3.4,1.4,5.6,4.6,5.7,8.2v90.3c0.1,2.3-0.5,4.7-1.8,6.6L6.3,200.4c-3.9,4.4-6,10.1-5.9,16v33c-0.3,6.2,2,12.2,6.2,16.7L12,271
		c1.4,1.9,2,4.3,1.9,6.7v103.7c0,10.3,4.1,20.1,11.3,27.4c7.3,7.3,17.1,11.4,27.4,11.4h176.2c10.3,0,20.2-4.1,27.4-11.4
		c7.3-7.3,11.4-17.1,11.4-27.4V38.8c0-10.3-4.1-20.2-11.4-27.4C249,4.1,239.1,0,228.8,0L228.8,0z M20.5,48.1c-1.3,0-2.3-1-2.3-2.3
		v-12v-7.2c0.1-4.9,4.1-8.7,9-8.7h103c2.4,0,4.7,0.9,6.3,2.6c1.7,1.7,2.6,4,2.6,6.3V34v11.9l0,0c0,0.6-0.2,1.2-0.7,1.7
		c-0.4,0.4-1,0.7-1.7,0.7L20.5,48.1z M21.7,251.5c-2,0-3.5-1.6-3.5-3.5v-19c0-2,1.6-3.6,3.5-3.6h113.9c0.9,0,1.9,0.4,2.5,1.1
		c0.7,0.7,1,1.6,1,2.5v19.2c0,0.9-0.4,1.8-1,2.5c-0.7,0.7-1.6,1-2.5,1L21.7,251.5z M152.8,381.6c0,5.5-2.2,10.7-6,14.6
		c-3.9,3.9-9.1,6-14.6,6H52.8c-5.5,0-10.8-2.2-14.7-6.1s-6.1-9.2-6.1-14.8V276.7c0-1.1,0.4-2.1,1.2-2.9s1.8-1.2,2.9-1.2h112.7
		c2.3,0,4.1,1.8,4.1,4.1L152.8,381.6z M158.1,186.7l-13.4,13.7l0,0c-0.5,0.5-0.9,1-1.3,1.5c-3,3.6-7.4,5.6-12.1,5.5H29.9
		c-1,0-1.8-0.5-2.2-1.4c-0.4-0.9-0.2-1.9,0.5-2.6l13.4-13.8l1.1-1.3l0,0c1.4-1.8,3.4-2.8,5.6-2.9h109.3c0.3,0,0.6,0.2,0.7,0.5
		S158.4,186.5,158.1,186.7L158.1,186.7z M162.6,156.1L162.6,156.1c0,4.8-3.9,8.7-8.7,8.7H64c-4.8,0-8.7-3.9-8.7-8.7V94.9
		c0-4.8,3.9-8.7,8.7-8.7h89.9c4.8,0,8.7,3.9,8.7,8.7L162.6,156.1z"/>
</g>
</svg>
