<?xml version="1.0" encoding="utf-8"?>
<!-- Generator: Adobe Illustrator 26.1.0, SVG Export Plug-In . SVG Version: 6.00 Build 0)  -->
<svg version="1.1" id="Layer_1" xmlns="http://www.w3.org/2000/svg" xmlns:xlink="http://www.w3.org/1999/xlink" x="0px" y="0px"
	 viewBox="0 0 414.4 87.1" style="enable-background:new 0 0 414.4 87.1;" xml:space="preserve">
<style type="text/css">
	.st0{fill:#FFFFFF;}
</style>
<g>
	<path class="st0" d="M61.2,12.8c0,0.1-0.1,0.3-0.1,0.6c0,0.4,0,0.7-0.1,0.9c-0.1,0.3-0.2,0.5-0.3,0.8l-0.3,0.9
		c-0.1,0.3-0.1,0.5-0.2,0.8c-0.1,0.3-0.4,0.5-0.5,0.8c-0.1,0.3,0,0.6-0.3,0.9c-0.1,0.3-0.3,0.4-0.4,0.7c-0.1,0.3-0.3,0.5-0.4,0.8
		c-0.3,0.3-0.3,0.4-0.6,0.7c-0.1,0.3-0.3,0.4-0.4,0.7c-0.3,0.3-0.2,0.5-0.5,0.8c-0.1,0.3-0.4,0.4-0.5,0.7c-0.3,0.3-0.2,0.5-0.5,0.8
		v-0.1c-0.3,0.3-0.3,0.5-0.6,0.8c-0.1,0.3-0.4,0.3-0.7,0.6s-0.1,0.4-0.4,0.7c-0.3,0.3-0.5,0.3-0.8,0.6s-0.2,0.4-0.5,0.7
		c-0.3,0.3-0.4,0.3-0.7,0.6c-0.3,0.3-0.5,0.5-0.6,0.7c-0.3,0.3-0.2,0.4-0.5,0.7c-0.2,0.1-0.4,0.3-0.7,0.6c-0.3,0.3-0.4,0.2-0.7,0.5
		c-0.3,0.3-0.4,0.3-0.7,0.6c-0.3,0.3-0.5,0.5-0.7,0.6c-0.3,0.3-0.4,0.2-0.7,0.5c-0.3,0.3-0.5,0.4-0.8,0.5c-0.3,0.3-0.3,0.4-0.6,0.7
		c-0.4,0.1-0.7,0.3-0.8,0.4c-0.3,0.1-0.4,0.4-0.7,0.5c-0.3,0.3-0.5,0.3-0.8,0.4c-0.3,0.3-0.5,0.2-0.8,0.5c-0.3,0.1-0.6,0-0.9,0.3
		c-0.3,0.1-0.5,0.3-0.8,0.4c-0.1,0.1-0.4,0.2-0.8,0.3c-0.3,0.1-0.4,0.2-0.5,0.2v0.1c0,0,0,0.1-0.1,0.2c-0.1,0.3-0.1,0.5-0.2,0.8
		c-0.1,0.2-0.2,0.6-0.3,1.1c0,0.3-0.1,0.4-0.1,0.7s-0.1,0.3-0.1,0.6c0,0.1-0.1,0.1-0.1,0.2v0.1c0,0.2,0,0.3-0.1,0.4
		c0,0.3-0.1,0.4-0.1,0.7v0.1l-0.1,0.1v0.1l-0.1,0.4l-0.3,0.6c0,0.3-0.1,0.3-0.1,0.6c-0.1,0.3-0.2,0.4-0.2,0.5l-0.3,0.6v0.2
		c-0.1,0.1-0.1,0.2-0.2,0.3c0,0.1-0.1,0.2-0.2,0.5l-0.1,0.3l-0.1,0.1v0.1c0,0.1,0,0.1-0.1,0.2L37,46.2v0.3c-0.1,0.1-0.1,0.2-0.1,0.3
		h-0.1v0.1V47l-0.1,0.1l-0.1,0.3c-0.1,0.3-0.2,0.4-0.3,0.5v0.1l-0.1,0.1v0.3c-0.1,0.1-0.1,0.2-0.2,0.5v0.2l-0.1,0.1l-0.1,0.3
		c0,0.1-0.1,0.3-0.2,0.6l-0.1,0.3v0.1l-0.1,0.2c-0.1,0.3-0.2,0.4-0.2,0.5c-0.1,0.1-0.1,0.2-0.2,0.3v0.1c0,0.3,0,0.5-0.1,0.6v0.3v0.2
		c-0.1,0-0.1,0-0.1,0.1V53c-0.1,0.1-0.1,0.2-0.1,0.3l-0.2,0.3l-0.1,0.3c0,0,0,0.1-0.1,0.2v0.1v0.1l-0.1,0.3l-0.1,0.6L34,55.3v0.1
		v0.3l-0.1,0.6v0.2v0.1l-0.1,0.3v0.6l-0.1,0.3v0.1v0.2c0,0.5,0,0.8-0.1,1.1v0.6v0.3v0.2c0,0.1,0,0.1,0.1,0.2c0,0.1,0,0.2,0.1,0.3
		c0,0.3,0.1,0.3,0.1,0.6c0.1,0.3,0.3,0.4,0.4,0.7c0,0.1,0.1,0.2,0.2,0.3l0.2,0.1v0.1c0.3,0,0.4,0.2,0.7-0.1l0.1-0.1l0.2-0.1
		c0.1-0.1,0.3-0.2,0.4-0.3c0.1-0.1,0.3-0.2,0.4-0.2l0.1-0.1l0.1-0.1l0.2-0.2l0.4-0.3l0.2-0.1c0-0.1,0.1-0.1,0.1-0.2
		c0.1,0,0.1-0.1,0.2-0.1l0.2-0.2l0.3-0.4l0.2-0.2l0.2-0.2c0.3-0.2,0.5-0.4,0.7-0.7c0.1,0,0.1,0,0.2-0.1l0.2-0.2l0.3-0.4
		c0.1-0.1,0.2-0.3,0.3-0.4l0.4-0.4l0.7-0.7c0.3-0.3,0.4-0.5,0.7-0.8l0.2-0.1v-0.1l0.1-0.1c0.1-0.1,0.2-0.3,0.3-0.4
		c0.1-0.1,0.2-0.3,0.3-0.4l0.1-0.1l0.1-0.1l0.2-0.2c0.1-0.2,0.3-0.4,0.6-0.7l0.1-0.1l0.1-0.1l0.2-0.2l0.3-0.4l0.2-0.2
		c0.1,0,0.1,0,0.1-0.1l0.1-0.1l0.1-0.1l0.1-0.2l0.3-0.4c0-0.1,0-0.1,0.1-0.2l0.1-0.1v-0.1l0.1-0.1c0.3-0.3,0.3-0.4,0.6-0.7l0.1-0.2
		l0.1-0.1l0.1-0.1l0.3-0.4l0.3-0.4l0.1-0.1v-0.1l0.2-0.2c0.3-0.3,0.2-0.5,0.5-0.8c0.1-0.1,0.2-0.3,0.3-0.4l0.3-0.4
		c0.1-0.1,0.2-0.3,0.3-0.4h0.1v-0.1l0.2-0.2c0.1-0.3,0.2-0.5,0.5-0.8l0.1-0.2c0-0.1,0-0.1,0.1-0.2c0.1-0.3,0.2-0.4,0.2-0.4
		c0.1-0.3,0.2-0.2,0.3-0.5v-0.1l0.1-0.1c0.1-0.1,0.1-0.2,0.2-0.3l0.3-0.3c0.1-0.3,0.2-0.4,0.2-0.4l0.1-0.1c0.1-0.1,0.2-0.2,0.3-0.5
		c0.1-0.1,0.2-0.3,0.3-0.4c0-0.1,0-0.2,0.1-0.2c0-0.1,0-0.1,0.1-0.2c0.1-0.3,0.1-0.2,0.2-0.5c0.1-0.3,0,0.2,0-0.1
		c0.1-0.1,0.1-0.2,0.1-0.1c0-0.1,0.1-0.3,0.2-0.4v-0.1v-0.1c0.1,0,0.1,0,0.1-0.1l0.2-0.2c0.1-0.1,0.1-0.2,0.2-0.3l0.2-0.2
		c0-0.1,0.1-0.2,0.1-0.3v0.1l0.1-0.1v-0.1c0.1-0.1,0.1-0.2,0.2-0.3c0.2-0.7,0.4-1.3,0.7-1.8c0.5-1.1,1-1.6,1.6-1.5
		c1.1,0.3-1.5,4.3-2.3,5.1c0,0.1-0.1,0.2-0.2,0.3c0,0-0.1,0.2-0.2,0.6c-0.1,0.3,0.1-0.2,0.1-0.3c0,0-0.1,0.1-0.2,0.4
		c0,0.1-0.1,0.2-0.2,0.5c0.1-0.1,0.1-0.1,0.1-0.2c0,0.1,0,0.1-0.1,0.2v0.2l-0.1,0.2c0-0.1-0.1,0.1-0.3,0.5L53,43.5
		c-0.1,0.3-0.1,0.2-0.2,0.5l-0.1,0.1l-0.1,0.1c0,0.1,0,0.1-0.1,0.1v0.1c-0.2,0.2-0.3,0.4-0.4,0.5c0,0,0,0.1-0.1,0.2h-0.1v0.1
		c-0.1,0.1-0.1,0.1-0.1,0.2v0.1c-0.1,0.3-0.3,0.5-0.4,0.6v0.1c-0.1,0.1-0.1,0.1-0.1,0.2c-0.1,0.1-0.2,0.2-0.2,0.3
		C51,47,50.8,47,50.7,47.3c0,0.1-0.1,0.2-0.2,0.3v0.1l-0.1,0.1L50.3,48c0,0.1-0.1,0.2-0.2,0.3c-0.1,0.1-0.2,0.3-0.3,0.4
		c-0.1,0.1-0.1,0.1-0.1,0.2c-0.1,0-0.1,0-0.1,0.1c-0.1,0.1-0.2,0.3-0.3,0.4c-0.1,0.1-0.2,0.3-0.2,0.4l-0.2,0.1
		c0,0.1-0.1,0.2-0.1,0.3l-0.2,0.2l-1.1,1.5C47.1,52,47,52.1,47,52.1c-0.1,0.1-0.1,0.1-0.1,0.2l-0.1,0.1c-0.1,0.3-0.2,0.4-0.3,0.5
		c-0.1,0.1-0.1,0.2-0.2,0.3c0,0.1-0.1,0.2-0.2,0.3l-0.2,0.2l-0.2,0.2c-0.1,0.1-0.2,0.3-0.3,0.4c-0.1,0.1-0.2,0.2-0.3,0.2
		c0,0.1-0.1,0.2-0.2,0.3c-0.2,0.2-0.3,0.4-0.4,0.5l-0.3,0.3c-0.1,0.1-0.2,0.3-0.3,0.4l-0.4,0.5l-0.2,0.2l-0.2,0.2l-0.4,0.5l-0.4,0.4
		l-0.4,0.4l-0.4,0.4l-0.1,0.1v0.1h-0.1l-0.2,0.2l-0.3,0.5l-0.2,0.2c-0.1,0.1-0.2,0.2-0.3,0.2c-0.2,0.3-0.5,0.6-0.8,0.8
		c-0.1,0.2-0.4,0.5-0.8,0.9l-0.2,0.2l-0.2,0.2l-0.2,0.1c-0.7,0.5-1.4,0.9-2.1,1.2c-1.2,0.5-2.7,0.9-3.9,0.1L31.5,63l-0.1-0.1
		c-2.3-2.7-1.3-8,0-11.9c0-0.1,0.1-0.2,0.2-0.3v-0.2h0.1c0.1-0.4,0.3-0.7,0.4-1c0-0.3,0.1-0.2,0.1-0.5l0.3-0.9
		c0.1-0.3,0.3-0.6,0.4-1c0.1-0.3,0.4-0.5,0.5-0.8c0.1-0.3,0.3-0.7,0.4-1l0.3-0.9c0.3-0.3,0.1-0.7,0.2-1c0.1-0.4,0.3-0.7,0.4-1
		c0.1-0.3,0.3-0.6,0.4-0.9c0.1-0.3,0.2-0.7,0.3-1l0.3-0.9c0.1-0.3,0.2-0.6,0.3-1c0.1-0.4,0.2-0.7,0.3-1l0.3-0.9
		c-1.2-0.3-2.2-0.8-2.9-1.1c-0.1,0-0.2,0-0.3-0.1c-0.3-0.3-0.4-0.5-0.5-0.6c-0.3-0.3-0.1-0.5-0.4-0.8l-0.2-0.4v-0.1
		c0-0.1,0-0.1-0.1-0.1c-0.1-0.3-0.2-0.4-0.3-0.7c0,0,0,0.1-0.1,0.2c0,0.1-0.1,0.2-0.2,0.5c-0.1,0.1-0.1,0.2-0.1,0.4v0.1
		c-0.1,0.3-0.4,0.6-0.4,0.9C31,35,31,35.3,30.9,35.6c-0.1,0.4-0.2,0.7-0.3,0.8c-0.1,0.4-0.2,0.7-0.2,0.9c-0.1,0.4-0.2,0.7-0.2,0.9
		c-0.1,0.3-0.3,0.5-0.4,0.8c-0.1,0.3-0.1,0.6-0.2,0.9c-0.1,0.3-0.2,0.5-0.3,0.8c-0.1,0.3-0.1,0.6-0.2,0.9c-0.1,0.4-0.2,0.7-0.2,0.8
		c-0.1,0.3-0.3,0.6-0.4,0.9c0,0.2-0.1,0.5-0.2,0.9c0,0.3-0.2,0.5-0.3,0.8c-0.1,0.4-0.2,0.7-0.3,0.8c-0.1,0.3-0.3,0.6-0.3,0.9
		c-0.1,0.1-0.2,0.4-0.3,0.8c-0.1,0.3,0,0.6-0.1,0.9c-0.1,0.3-0.3,0.5-0.4,0.8l-0.3,0.9c-0.1,0.3-0.1,0.5-0.2,0.8
		c-0.1,0.3-0.1,0.6-0.2,0.9c-0.1,0.3-0.4,0.5-0.4,0.8l-0.3,0.9c-0.1,0.1-0.2,0.4-0.3,0.8c-0.1,0.4-0.2,0.7-0.3,0.8
		c-0.1,0.3,0,0.7-0.1,1c-0.1,0.3-0.3,0.5-0.4,0.8c-0.1,0.1-0.2,0.4-0.3,0.8c-0.1,0.3-0.1,0.6-0.2,0.9c-0.1,0.3-0.3,0.5-0.4,0.8
		c-0.1,0.3-0.2,0.5-0.3,0.8c-0.1,0.3-0.1,0.6-0.2,0.9c-0.1,0.4-0.2,0.7-0.3,0.8c-0.1,0.3-0.4,0.5-0.5,0.8c-0.1,0.4-0.2,0.7-0.3,0.8
		l-0.3,0.9c-0.1,0.3-0.2,0.5-0.3,0.8c-0.3,0.3-0.4,0.5-0.5,0.8c-0.1,0.3,0,0.6-0.3,0.9c-0.1,0.3-0.2,0.4-0.5,0.7
		c-0.1,0.2-0.2,0.4-0.5,0.7c-0.1,0.3-0.2,0.4-0.2,0.5c-0.5,1.3-1.1,2.4-2,3.3c-1.5,1.6-4,3.3-8.2,3.3c-0.3,0-0.3,0.1-0.4,0.1H8.1
		H7.9H7.8H7.3c-0.1,0-0.3-0.1-0.4-0.1H6.5H6.4c-0.1-0.1-0.3-0.1-0.4-0.2c-0.3,0-0.4,0-0.5-0.1H5.2c-0.1-0.1-0.2-0.1-0.3-0.1
		c-0.3-0.1-0.2-0.1-0.5-0.2S3.9,75,3.7,74.9H3.6l-0.9-0.6l-0.2-0.1l-0.1-0.1c-0.1,0-0.1,0-0.2-0.1c-0.3-0.1-0.2-0.3-0.5-0.4
		l-0.2-0.2l-0.2-0.2H1.2v-0.1C1.1,73,1.1,73,1.1,72.9C1,72.8,1,72.8,1,72.7c-0.1-0.1-0.1-0.3-0.1-0.4c-0.1-0.1-0.1-0.3-0.2-0.4v-0.2
		l-0.1-0.1v-0.1c-0.1-0.2-0.1-0.5-0.1-0.8c-0.1-0.1-0.1-0.2-0.1-0.4v-0.1L0.3,70c0-0.1-0.1-0.4-0.2-0.8v-0.3v-0.1v-0.1v-0.4v-0.4
		v-0.4v-0.1v-0.1V67L0,66.6v-0.4v-0.3c0,0,0-0.1,0.1-0.2c0-0.3,0-0.6,0.1-0.8v-0.4c0-0.1,0-0.1,0.1-0.2v-0.2
		c0.1-0.4,0.2-0.7,0.2-0.8s0.1-0.3,0.1-0.4l0.1-0.4c0.1-0.4,0.2-0.7,0.2-0.8C1,61.4,1.1,61.3,1.2,61c0-0.2,0-0.3,0.1-0.4v-0.1v-0.1
		c0,0,0-0.1,0.1-0.2l0.1-0.5c0-0.1,0.1-0.2,0.1-0.3v-0.2l0.1-0.1V59c0.1-0.3,0.3-0.7,0.4-1.1l0.1-0.1c0-0.1,0.1-0.1,0.1-0.2l0.1-0.2
		c0.1-0.3,0.2-0.4,0.3-0.5l0.1-0.3l0.1-0.1L3,56.2c0.1-0.1,0.2-0.2,0.3-0.5l0.2-0.2c0-0.1,0-0.1,0.1-0.2c0-0.1,0-0.1,0.1-0.2
		l0.1-0.3c0.1-0.3,0.2-0.2,0.3-0.5l0.1-0.2L4.3,54c0.1-0.1,0.1-0.2,0.2-0.3c0.1-0.1,0.1-0.3,0.4-0.4L5,53.1L5.1,53l0.1-0.1
		c0.1-0.3,0.2-0.2,0.3-0.5c0.1-0.1,0.2-0.2,0.3-0.5H6v-0.1l0.1-0.1l0.2-0.2c0.1-0.1,0.2-0.2,0.3-0.5l0.2-0.2C6.9,50.7,7,50.6,7,50.5
		c0.3-0.1,0.2-0.2,0.5-0.3c0.1-0.2,0.2-0.3,0.4-0.4v-0.1H8l0.1-0.1l0.2-0.2l0.9-0.6l0.4-0.4c0.1-0.1,0.3-0.2,0.4-0.3l0.1-0.1h0.1
		c0-0.1,0-0.1,0.1-0.1c0.1-0.1,0.2-0.1,0.3-0.2c0.1,0,0.3-0.1,0.4-0.2l0.3-0.1l0.1-0.1h0.1c0.1-0.1,0.3-0.2,0.4-0.3
		c0.3-0.1,0.4-0.2,0.5-0.2c0.1-0.1,0.2-0.1,0.3-0.2c0,0,0.1,0,0.2-0.1c0.3-0.1,0.3-0.2,0.6-0.3c0.1,0,0.2,0,0.3-0.1h0.1H14l0.1-0.1
		h0.1h0.2c0.1,0,0.1,0,0.2-0.1h0.2c0.2,0,3.5-1,3.2,0.2c-0.3,1.2-1.5,0.5-3,0.8c-0.1,0-0.2,0-0.2,0.1h-0.1L14,47.1l-0.1,0.1
		c-0.1,0-0.1,0.1-0.2,0.1c-0.1,0.1-0.2,0.1-0.5,0.2v0.1h-0.1H13l-0.2,0.2c-0.1,0-0.2,0.1-0.1,0.1c-0.2,0.1-0.4,0.2-0.7,0.3l-0.1,0.1
		h-0.1l-0.1,0.1c-0.1,0.1-0.2,0.1-0.3,0.2c-0.3,0.1-0.4,0.2-0.4,0.2L10.9,49h-0.1l-0.1,0.1c-0.3,0.3-0.3,0.2-0.6,0.5
		c-0.1,0-0.3,0.1-0.4,0.2c-0.1,0.1-0.2,0.1-0.3,0.2L9,50.4c-0.1,0-0.2,0.1-0.3,0.2H8.6c0,0.1,0,0.1-0.1,0.2
		c-0.1,0.1-0.3,0.2-0.4,0.3l-0.3,0.3l-0.1,0.1l-0.1,0.1l-0.1,0.1c-0.1,0.3-0.3,0.5-0.4,0.6L7,52.4c0,0.1-0.1,0.1-0.1,0.2l-0.1,0.1
		l-0.1,0.1c-0.1,0.3-0.3,0.5-0.4,0.6c0,0.1-0.1,0.2-0.2,0.3c0,0.1-0.1,0.2-0.2,0.2c-0.1,0.3-0.3,0.3-0.4,0.6l-0.2,0.2v0.1l-0.1,0.1
		l-0.3,0.6c-0.1,0.1-0.1,0.2-0.2,0.3c-0.1,0.3-0.2,0.4-0.2,0.4c-0.1,0.1-0.2,0.2-0.3,0.5C4,56.8,3.9,56.9,3.9,57l-0.1,0.1v0.2
		c-0.1,0.1-0.3,0.2-0.4,0.5c0,0.1-0.1,0.2-0.1,0.3c0,0.1-0.1,0.2-0.1,0.3l-0.3,0.6l-0.1,0.3v0.1c-0.1,0.1-0.1,0.1-0.1,0.2
		c0,0.1-0.1,0.3-0.1,0.6l-0.1,0.3c0,0.1,0,0.1-0.1,0.2V61c-0.1,0.4-0.2,0.7-0.3,1c-0.1,0.4-0.2,0.7-0.3,1l-0.1,0.2v0.1v0.2
		c-0.1,0.1-0.1,0.3-0.1,0.5c-0.1,0.3-0.1,0.4-0.2,0.5v0.1v0.1V65c-0.1,0.1-0.1,0.3-0.1,0.5l-0.1,0.3V66v0.3v0.2
		c0,0.3,0.1,0.3,0.1,0.6v0.3v0.1v0.1v0.6v0.3v0.2V69c0,0.1,0.1,0.2,0.1,0.3c0-0.1-0.1-0.2-0.1-0.3v-0.2v-0.3v-0.3v-0.2v0.7v0.1
		c0.1,0.1,0.1,0.1,0.1,0.2c0,0.2,0,0.3,0.1,0.4c0,0.3,0.1,0.4,0.1,0.5c0,0.3,0.1,0.4,0.1,0.5c0,0.2,0,0.4,0.1,0.5
		c0,0.2,0,0.3,0.1,0.4v0.2L2,71.7C2,72,2.1,72,2.1,72.1c0.1,0.1,0.1,0.1,0.1,0.2v0.1c0.1,0,0.1,0,0.1,0.1l0.1,0.1
		c0.1,0,0.2,0.1,0.3,0.2C2.8,72.9,2.9,72.9,3,73l0.1,0.1l0.1,0.1c0.3,0.1,0.2,0.2,0.5,0.3c0.3,0.1,0.2,0.2,0.5,0.3L4.8,74
		c0.1,0.1,0.2,0.1,0.3,0.1c0.1,0.1,0.1,0.1,0.2,0.1c0.4,0.1,0.9,0.3,1.3,0.3H6.6h0.1c0.1,0,0.2,0.1,0.3,0.1h0.3l0.3,0.1h0.2h0.1H8
		h0.2c0.1,0,0.2-0.1,0.3-0.1h0.3c0.1,0,0.2,0,0.3-0.1h0.1H9.1h0.3h0.2c0.3,0,0.4-0.1,0.5-0.1h0.2h0.1c0.1-0.1,0.3-0.1,0.4-0.2
		c0.1,0,0.1-0.1,0.4-0.1c0,0,0.1-0.1,0.4-0.2h0.1l0.1-0.1H12c0.1,0,0.2-0.1,0.3-0.1c0.2,0,0.3,0,0.4-0.1h0.2
		c0.1-0.1,0.1-0.1,0.2-0.1c0.1-0.1,0.2-0.1,0.3-0.2c0.1,0,0.2-0.1,0.3-0.1l1.5-2c0-0.1,0-0.1,0.1-0.1c0.3-0.3,0.4-0.5,0.5-0.6
		c0.1-0.1,0.2-0.4,0.3-0.8c0.1-0.3,0.2-0.4,0.3-0.7c0.1-0.3,0.1-0.6,0.2-0.9c0.1-0.1,0.2-0.4,0.3-0.8c0.1-0.3,0.1-0.5,0.2-0.8
		c0.1-0.3,0.1-0.5,0.2-0.8c0.1-0.3,0.1-0.6,0.2-0.9c0.1-0.1,0.2-0.4,0.3-0.8c0-0.3,0.2-0.5,0.3-0.9c0-0.3,0-0.6,0.1-0.9
		c0-0.1,0.1-0.4,0.2-0.8c0.1-0.3,0.3-0.6,0.4-0.9c0-0.3,0-0.6,0.1-0.8c0.1-0.3,0.1-0.6,0.2-0.9s0.1-0.6,0.2-0.9
		c0.1-0.4,0.2-0.7,0.3-0.8c0.1-0.4,0.2-0.7,0.2-0.9l0.3-0.9c0-0.3,0.2-0.5,0.3-0.8c0-0.2,0.1-0.5,0.2-0.9c0-0.3,0.2-0.5,0.3-0.8
		c0-0.3-0.1-0.7,0-1c0.1-0.1,0.2-0.4,0.3-0.8l0.3-0.9c0-0.3,0-0.5,0.1-0.8c0.1-0.4,0.2-0.7,0.2-0.9c0.1-0.3,0.3-0.6,0.4-0.9
		c0.1-0.1,0.1-0.4,0.1-0.8c0.1-0.3,0.3-0.6,0.4-0.9c0-0.1,0.1-0.4,0.2-0.8c0.1-0.2,0.1-0.5,0.1-0.9l0.3-0.9c0-0.2,0.1-0.5,0.2-0.9
		c0.1-0.3,0.2-0.5,0.3-0.8c0.1-0.4,0.2-0.7,0.2-0.9c0.1-0.3,0.3-0.5,0.4-0.8c0-0.3-0.1-0.6,0-0.9c0.1-0.3,0.3-0.6,0.4-0.9
		c0.1-0.3,0.1-0.5,0.2-0.8c0.1-0.4,0.2-0.7,0.2-0.9c0.1-0.3,0.1-0.6,0.2-0.9c0.1-0.4,0.2-0.7,0.2-0.8c0.1-0.4,0.2-0.7,0.2-0.9
		c0.1-0.3,0.3-0.5,0.4-0.8c0.1-0.2,0.1-0.5,0.1-0.9c0.1-0.3,0.1-0.6,0.2-0.9c0.1-0.3,0.3-0.5,0.4-0.8c0.1-0.4,0.2-0.7,0.2-0.9
		c0.1-0.3,0.1-0.6,0.2-0.9c0.1-0.3,0.1-0.6,0.2-0.9c0.1-0.3,0.3-0.5,0.4-0.8c0.1-0.3,0.1-0.6,0.2-0.9c0.1-0.3,0-0.5,0.1-0.8
		s0.1-0.6,0.2-0.9c0.1-0.3,0.3-0.5,0.4-0.8c0.1-0.3,0-0.6,0.1-0.9l0.3-0.9c0-0.4,0-0.7,0.1-0.9c0.1-0.3,0.3-0.5,0.4-0.8
		c0-0.2,0.1-0.5,0.2-0.9c0.1-0.2,0.1-0.5,0.1-0.9c0.1-0.3,0.3-0.5,0.4-0.8l0.3-0.9c0-0.1,0.1-0.4,0.2-0.8c0-0.4,0-0.7,0.1-0.9
		c0.1-0.3,0.3-0.6,0.3-0.9c0.1-0.3,0.2-0.5,0.2-0.8l0.3-0.9c0.1-0.3,0.1-0.6,0.2-0.9c0.1-0.4,0.2-0.7,0.2-0.8
		c0.1-0.3,0.3-0.6,0.3-0.9c0.1-0.4,0.2-0.7,0.3-0.8c0-0.3,0.2-0.6,0.2-0.9c0.1-0.2,0.1-0.5,0.1-0.9c0.1-0.3,0.3-0.5,0.3-0.8l0.3-0.9
		c0.1-0.3,0-0.6,0.1-0.9s0.3-0.5,0.4-0.8c0.1-0.4,0.2-0.7,0.2-0.9h-0.1c0,0-0.1,0-0.2,0.1c-0.3,0-0.5,0.1-0.8,0.2h-0.2h-0.1
		c-0.1,0.1-0.1,0.1-0.2,0.1h-0.3c-0.1,0.1-0.2,0.1-0.4,0.1c-0.1,0-0.2,0-0.3,0.1h-0.1c-0.3,0.1-0.2,0.1-0.5,0.2
		c-0.1,0-0.1,0.1-0.4,0.1c0,0-0.1,0-0.2,0.1c0,0-0.1,0-0.2,0.1c-0.1,0-0.4,0.1-0.8,0.2h-0.2c-0.1,0.1-0.1,0.1-0.2,0.1
		c-0.1,0.1-0.2,0.1-0.4,0.1c-0.4,0.1-0.7,0.2-0.8,0.3c-0.3,0.1-0.5,0.2-0.8,0.4c-0.4,0.1-0.7,0.2-0.8,0.3L26,4.6l-0.2,0.1v0.1h-0.1
		c-0.3,0.1-0.5,0.2-0.8,0.5l-0.2,0.1h-0.1h0.1h-0.1l-0.1,0.1c-0.1,0.1-0.3,0.1-0.4,0.2C24,5.9,23.8,6,23.7,6l-0.3,0.3
		c-0.3,0.1-0.5,0.2-0.8,0.5l-0.1,0.1L22.3,7L22,7.3l-0.3,0.3l-0.2,0.2l-0.1,0.1l-0.3,0.3c-0.1,0.1-0.2,0.3-0.3,0.4s-0.1,0.1-0.2,0.1
		l-0.1,0.2l-0.3,0.3c-0.1,0.1-0.2,0.2-0.3,0.2c0,0.1,0,0.1-0.1,0.2l-0.1,0.1v0.2c-0.1,0.1-0.1,0.2-0.2,0.3c0,0.1-0.1,0.3-0.1,0.4
		l-0.1,0.3c-0.1,0.3-0.1,0.8-0.1,1.1c0.1,0.1,0.1,0.2,0.1,0.5c0.1,0.1,0.1,0.3,0.1,0.6c0.1,0.1,0.1,0.2,0.2,0.5
		c0,0.3,0.1,0.3,0.1,0.4c0.1,0.5,1.6,1.5,0.5,2.2c-1.1,0.5-1.9-2.3-1.9-2.6v-0.1v-0.1v-0.1l-0.1-0.1V13v-0.2v-0.4
		c-0.1-0.1-0.1-0.2-0.1-0.4v-0.1v-0.1v-0.2v-0.5c0-0.2,0-0.4,0.1-0.5v-0.1c0-0.1,0.1-0.2,0.2-0.5c0-0.1,0.1-0.1,0.1-0.4
		c0.1,0,0.1,0,0.1-0.1c0-0.1,0-0.1,0.1-0.2c0-0.1,0-0.2,0.1-0.3C18.9,8.7,19,8.6,19,8.7l0.2-0.2c0.1-0.1,0.3-0.2,0.4-0.3L19.8,8
		c0-0.1,0.1-0.1,0.1-0.2l0.3-0.3c0.1-0.2,0.2-0.3,0.4-0.4c0-0.1,0-0.1,0.1-0.1l0.1-0.1L21,6.7l0.3-0.3c0.1-0.1,0.3-0.2,0.4-0.3V6
		h0.1l0.1-0.1l0.2-0.2l0.4-0.2c0.1-0.1,0.3-0.2,0.4-0.3c0.3-0.1,0.4-0.2,0.5-0.3c0.3-0.3,0.4-0.3,0.5-0.4c0.4-0.3,0.7-0.3,1.1-0.6
		c0.1,0,0.1-0.1,0.2-0.1c0.1-0.1,0.2-0.1,0.3-0.2c0.1,0,0.3-0.1,0.6-0.2c0.1-0.1,0.2-0.1,0.3-0.1l0.1-0.1L26.7,3
		c0.1,0,0.2,0,0.3-0.1c0.1,0,0.1,0,0.2-0.1h0.1h-0.1l0.1-0.1c0.1,0,0.3-0.1,0.4-0.2c0.1,0,0.3-0.1,0.4-0.1c0,0,0.1,0,0.2-0.1
		c0.3,0,0.3-0.1,0.6-0.1C29,2.1,29,2.1,29.1,2.1c0.1,0,0.1,0,0.2-0.1h0.1L30,1.8c0.3,0,0.4-0.1,0.5-0.1c0.3-0.1,0.2-0.1,0.5-0.2
		l0.6-0.2h0.1l0.1-0.1H32h0.3c0.1-0.1,0.3-0.1,0.5-0.1l0.6-0.2c0.3,0,0.5,0,0.6-0.1c0.1,0,0.2,0,0.3-0.1h0.1h0.1
		c0.1,0,0.2,0,0.2-0.1c1.6-0.5,3-0.6,4.1-0.6c0.6,0,1.2,0.1,1.7,0.2H41c0.2-0.1,0.5-0.1,0.9-0.1c0.3-0.1,0.6,0,0.9,0
		c0.3,0,0.6-0.1,0.9-0.1s0.6,0.1,0.9,0.1c0.3,0,0.6,0.1,0.9,0.1s0.6-0.2,0.9-0.1c0.2,0,0.5,0.1,0.9,0.2c0.4,0,0.7,0,0.9,0.1h0.9
		c0.4,0.1,0.7,0,1,0.1c0.1,0,0.4,0.1,0.8,0.2c0.3,0.1,0.6,0.1,0.9,0.1c0.3,0.1,0.6,0.1,0.9,0.2s0.5,0.4,0.8,0.5l0.9,0.3
		c0.3,0.1,0.6,0.1,0.9,0.2c0.3,0.1,0.4,0.4,0.7,0.5c0.2,0.1,0.5,0.3,0.9,0.4c0.3,0.3,0.4,0.3,0.7,0.6c0.3,0.3,0.4,0.3,0.7,0.6
		s0.3,0.4,0.6,0.7c0.3,0.3,0.2,0.5,0.5,0.8C59.7,6,59.7,6.2,60,6.5c0.1,0.3,0.3,0.4,0.4,0.7c0.1,0.2,0.3,0.5,0.4,0.9
		C60.9,8.5,61,8.8,61,9c0.1,0.3,0,0.6,0.1,0.9c0,0.3,0.1,0.6,0.1,0.9c0,0.3,0.2,0.6,0.2,0.9s-0.2,0.6-0.2,0.9V12.8z M5.3,53.2
		c0.2-0.2,0.3-0.4,0.4-0.5c0.1-0.3,0.2-0.2,0.3-0.5l0.1-0.1V52h0.1c0-0.1,0.1-0.2,0.2-0.2c0.1-0.3,0.2-0.4,0.3-0.5
		c-0.1,0.1-0.2,0.3-0.3,0.4l-0.2,0.2c0,0.1,0,0.1-0.1,0.1c0,0.1,0,0.1-0.1,0.2c-0.1,0.1-0.2,0.2-0.3,0.5C5.7,53,5.5,52.9,5.3,53.2z
		 M7.4,50.6l0.3-0.3C7.8,50.2,8,50.1,8.1,50l0.1-0.1l0.2-0.2c0.3-0.3,0.5-0.2,0.8-0.5l0.3-0.3c0.1-0.1,0.3-0.2,0.4-0.3
		c-0.1,0.1-0.3,0.2-0.4,0.3l-0.3,0.3l-0.9,0.6L8.1,50L8,50.1c-0.1,0.1-0.3,0.2-0.4,0.3l-0.3,0.3l-0.1,0.1L7.4,50.6z M38.3,27.5
		c0-0.3,0.1-0.7,0-1c0-0.4-0.2-0.6-0.3-0.9c-0.3-0.4-0.2-0.6-0.5-0.9c-0.3-0.1-0.6-0.3-1-0.4c-0.3,0-0.6,0.1-0.8,0.3
		c-0.1,0-0.1,0-0.2,0.1c-0.1,0-0.2,0-0.2,0.1h-0.1c-0.1,0-0.1,0-0.2,0.1c-0.1,0-0.3,0.1-0.4,0.2c-0.1,0.1-0.2,0.1-0.3,0.2v0.1h-0.1
		c-0.1,0.1-0.1,0.2-0.2,0.3v0.1l-0.3,0.9l-0.3,0.9c0,0.1-0.1,0.4-0.2,0.8c0,0.1-0.1,0.3-0.2,0.6c-0.1,0.6-0.1,1.2-0.1,1.8
		c0,1.1,0.1,2.2,0.6,3c0.1,0.1,0.1,0.1,0.1,0.2c0.1,0.1,0.2,0.3,0.3,0.4l0.2,0.2c0.3,0.3,0.6,0.2,0.9,0.5c0.1,0.1,0.4,0.2,0.8,0.5
		c0.1,0,0.2,0.1,0.5,0.2c0.3,0,0.3,0.1,0.6,0.1c0-0.1,0.1-0.3,0.1-0.4c0.1-0.4,0.2-0.7,0.2-1c0.1-0.3,0.2-0.7,0.3-1
		c0-0.3,0.2-0.6,0.3-0.9c0-0.5,0-0.8,0.1-1.1c0-0.1,0.1-0.5,0.2-1c0-0.3,0.1-0.6,0.1-1c0.1-0.3,0-0.6,0.1-1
		C38.3,28.2,38.4,27.8,38.3,27.5z M56.7,9.9V9c-0.1-0.3,0-0.7-0.1-1c-0.1-0.3-0.3-0.5-0.4-0.8c-0.1-0.4-0.2-0.7-0.3-0.8
		c-0.3-0.3-0.5-0.4-0.6-0.7c-0.1-0.2-0.3-0.4-0.6-0.7s-0.3-0.4-0.6-0.7c-0.2-0.2-0.4-0.4-0.7-0.5c-0.2-0.1-0.5-0.3-0.9-0.4
		C52.2,3.1,52,3,51.7,2.9s-0.5-0.3-0.8-0.4L50,2.2C49.6,2.1,49.3,2,49.1,2c-0.3-0.1-0.5-0.2-0.8-0.3s-0.6,0-0.9-0.1
		c-0.3,0-0.6-0.2-0.9-0.2c-0.3-0.1-0.6,0-0.9-0.1c-0.3,0-0.6-0.1-0.9-0.1h-0.9c-0.4,0-0.7,0.1-1,0.1c-0.3-0.1-0.6,0-0.9,0h-0.9
		c-0.1,0.1-0.1,0.1-0.1,0.2c0,0.1-0.1,0.3-0.1,0.6c-0.1,0.2-0.2,0.5-0.3,0.9c0,0.1-0.1,0.4-0.2,0.8c-0.1,0.2-0.1,0.5-0.1,0.9
		C40,5,39.7,5.4,39.6,5.7c0,0.3,0,0.6-0.1,0.9c0,0.3-0.3,0.5-0.4,0.8c0,0.4,0,0.7-0.1,0.9c-0.1,0.3-0.2,0.5-0.3,0.8
		c-0.1,0.3-0.1,0.6-0.2,0.9l-0.3,0.9c-0.1,0.3-0.2,0.5-0.3,0.8l-0.3,0.9c-0.1,0.3-0.1,0.6-0.2,0.9c-0.1,0.3-0.1,0.6-0.2,0.9
		c0,0.3-0.2,0.5-0.3,0.8c-0.1,0.3,0,0.6-0.1,0.9c-0.1,0.3-0.3,0.6-0.3,0.9c-0.1,0.3-0.3,0.5-0.3,0.8c-0.1,0.3-0.1,0.6-0.2,0.9
		c-0.1,0.3-0.1,0.6-0.2,0.9c-0.1,0.3-0.2,0.5-0.3,0.8l-0.3,0.9c0,0.3-0.2,0.6-0.3,0.9c0,0.3-0.2,0.5-0.2,0.8l-0.2,0.6
		c0.1,0,0.1,0,0.2-0.1c0.3-0.1,0.4-0.1,0.5-0.2c0.1,0,0.2-0.1,0.5-0.2c0.1-0.1,0.2-0.1,0.4-0.1c0.1,0,0.1-0.1,0.2-0.1h0.1h0.1
		c0.1,0.1,0.3,0.1,0.6,0.1s0.3,0.1,0.6,0.1l0.1,0.1h0.1c0.1,0.1,0.2,0.1,0.3,0.2l0.2,0.2c0.3,0.1,0.4,0.3,0.5,0.4
		c0.1,0,0.1,0,0.2,0.1v0.1h0.1l0.2,0.2c0.1,0.1,0.1,0.2,0.2,0.3c0.1,0.1,0.2,0.2,0.2,0.3h0.1v0.1c0.1,0.5,0.3,0.9,0.4,1.2v0.1
		c0,0.1,0.1,0.1,0.1,0.2v0.1V27v0.2c0,0.3,0.1,0.3,0.1,0.6v0.6v0.1v0.1l0.1,0.1V29c-0.1,0.2-0.1,0.4,0,0.6v0.5c0,0.2,0,0.3,0.1,0.4
		v0.2v0.1v0.1v0.7V32v0.2c0,0.1-0.1,0.2-0.1,0.3c0,0.2-0.1,0.4-0.2,0.7v0.2v0.1v0.1c-0.1,0.1-0.1,0.2-0.1,0.4c0,0.3-0.1,0.5-0.1,0.8
		h-0.1v0.1v0.2v0.4l0.6-0.2c0.1-0.1,0.4-0.2,0.8-0.3c0.4-0.1,0.7-0.2,0.8-0.3c0.3-0.3,0.5-0.2,0.8-0.5c0.3-0.1,0.5-0.1,0.8-0.4
		c0.3-0.3,0.5-0.5,0.7-0.6c0.3-0.1,0.4-0.2,0.7-0.5s0.3-0.4,0.6-0.7s0.5-0.5,0.7-0.6c0.3-0.3,0.4-0.2,0.7-0.5
		c0.3-0.3,0.2-0.4,0.5-0.7c0.3-0.3,0.3-0.4,0.6-0.7s0.5-0.3,0.6-0.6c0.3-0.3,0.4-0.5,0.5-0.8c0.3-0.3,0.2-0.5,0.5-0.8
		s0.4-0.5,0.5-0.7c0.3-0.3,0.5-0.5,0.6-0.7c0.3-0.3,0.1-0.5,0.4-0.8c0.1-0.3,0.3-0.5,0.5-0.7c0.1-0.4,0.3-0.7,0.4-0.8
		c0.1-0.3,0.2-0.5,0.5-0.8c0.1-0.1,0.2-0.4,0.3-0.8c0.2-0.2,0.4-0.5,0.5-0.8c0.1-0.1,0.2-0.4,0.3-0.8c0.1-0.3,0.3-0.5,0.4-0.8
		c0.1-0.3,0.3-0.5,0.4-0.8c0.1-0.3,0-0.6,0.1-0.9c0.1-0.3,0.3-0.5,0.4-0.8c0.1-0.3,0.1-0.6,0.2-0.9c0.1-0.4,0.2-0.7,0.3-0.8
		c0-0.3,0.1-0.6,0.1-0.9c0.1-0.3,0.3-0.5,0.4-0.8c0.1-0.2,0.1-0.5,0.1-0.9c0.1-0.4,0.2-0.7,0.2-0.9c0.1-0.2,0.1-0.5,0.1-0.9
		C56.8,10.5,56.7,10.2,56.7,9.9z"/>
	<path class="st0" d="M88.7,36.9V37c-0.3,0.3-0.7,0.4-1,0.7c0.3-0.3,0.5-0.3,0.8-0.6c-0.5,0.4-1.2,1-1.6,1.3H87
		c-0.3,0.1-0.2,0.3-0.5,0.4l-0.4,0.4c0.3-0.3,0.5-0.4,0.8-0.7c-0.1,0.1-0.4,0.3-0.7,0.6c0.7-0.5,1.3-1.1,1.8-1.6
		c-0.1,0.3-0.4,0.4-0.5,0.5c-0.1,0.1-0.3,0.2-0.4,0.3c-0.1,0.3-0.3,0.3-0.4,0.4c-0.3,0.3-0.5,0.4-0.8,0.7l-0.7,0.7
		c-0.3,0.3-0.4,0.3-0.7,0.6c0.1-0.1,0.2-0.2,0.3-0.2l0.3-0.3c0.3-0.3,0.3-0.2,0.6-0.5c0.4-0.3,0.7-0.7,1.1-1c0.3-0.2,0.6-0.5,1-0.9
		V38l-0.2,0.2c-0.1,0.1-0.3,0.2-0.6,0.5c-0.2,0.1-0.4,0.3-0.7,0.6c-0.4,0.4-0.9,0.8-1.4,1.2c-0.4,0.4-0.9,0.9-1.4,1.3
		c-0.1,0.3-0.3,0.2-0.4,0.5c-0.2,0.1-0.3,0.2-0.4,0.4l-0.9,0.9l-0.6,0.6c-0.1,0.1-0.2,0.3-0.3,0.4l-0.3,0.3
		c-0.3,0.5-0.7,0.9-1.2,1.4c-0.1,0.1-0.2,0.3-0.3,0.4c-0.1,0.1-0.2,0.3-0.3,0.4c-0.3,0.3-0.3,0.4-0.6,0.7c-0.3,0.3-0.3,0.5-0.6,0.8
		c-0.1,0.1-0.2,0.3-0.3,0.4c-0.3,0.1-0.3,0.3-0.4,0.4c-0.3,0.5-0.7,1-1.2,1.5l0.1-0.1L75.6,51l-0.1,0.1c0,0.1,0,0.1-0.1,0.1
		c-0.1,0.1-0.2,0.3-0.4,0.5c-0.7,0.7-1.1,1.5-1.8,2.2c-0.7,0.8-1.3,1.7-1.8,2.4c-0.3,0.3-0.2,0.4-0.5,0.7c0,0.1,0.1,0,0.1-0.1
		l-0.2,0.2c-0.1,0.1-0.1,0.2-0.2,0.3c0,0,0-0.1,0.1-0.2v0.1c0.1-0.3,0.2-0.6,0.5-0.9c-0.1,0.1-0.3,0.3-0.4,0.6v-0.1
		c0,0.1-0.1,0.3-0.2,0.4c-0.1,0.1-0.1,0.1-0.1,0.2h-0.1c0.1,0,0.1,0,0.1-0.1l-0.1,0.1v0.1h-0.1c-0.1,0-0.1,0.1-0.2,0.1H70l-0.6,0.2
		H69c0.3,0,0.2-0.1-0.1-0.1c-0.1,0-0.3-0.2-0.4-0.2l-0.2-0.2L68,57.2c-0.1-0.3-0.3-0.5-0.4-0.8c0.1,0,0-0.1-0.2-0.3
		c0-0.1-0.1-0.3-0.2-0.6c-0.1-0.5-0.2-0.9-0.3-1.4v-0.3v-0.1v0.4c0-0.3-0.1-0.2-0.1-0.5s0-0.5,0.1-0.7c-0.1-0.2-0.1-0.5-0.1-1v-0.2
		v-0.1v-0.1v-0.1v-0.5c0.1-0.7,0.1-1.3,0.2-2c0.1-0.4,0.2-0.9,0.3-1.3c0.1-0.4,0.3-0.9,0.4-1.4c0.1-0.4,0.2-0.9,0.3-1.3
		c0.1-0.5,0.1-0.9,0.2-1.3l0.1-0.1c0.3-0.5,0.5-1,0.6-1.3c0.1-0.5,0.2-0.9,0.2-1.2h0.1v-0.1v-0.2l0.1-0.3l0.2-0.6l0.1-0.2v-0.1
		c0.1-0.3,0.2-0.4,0.2-0.4c0.1-0.3,0.2-0.5,0.2-0.7c0.1-0.1,0.1-0.1,0.1-0.2l0.1-0.2l0.2-0.4c0.1-0.3,0.2-0.5,0.3-0.7
		c0.1-0.3,0.1-0.4,0.2-0.7c-0.3,0.3-0.4,0.6-0.7,0.9L70.2,37c-0.3,0.5-0.5,1-0.8,1.5l-0.9,1.3l-0.9,1.3l-0.9,1.3l-0.7,1.3l-0.8,0.9
		L65,44.9L64.9,45v0.1l-0.1,0.1l-0.3,0.4c-0.5,0.7-0.9,1.2-1.3,1.9c-0.4,0.4-0.8,0.8-1.1,1.3c-0.3,0.2-0.7,0.6-1.2,1.1
		c-0.3,0.4-0.6,0.8-0.9,1.3l-1.2,1.2c-0.5,0.3-1,0.7-1.4,1.1c-0.5,0.3-1,0.7-1.5,1.1c-0.7,0.3-1.3,0.5-2,0.8h-0.1h-0.1H53
		c-0.3,0-0.4,0-0.5-0.1h-1h-0.1l-0.1-0.1c-0.5-0.4-0.9-0.8-1.4-1.3c-0.3-0.5-0.2-0.9-0.5-1.4c-0.1-0.5-0.1-0.9-0.2-1.4
		c0-0.3,0-0.6,0.1-0.8V50v-0.2l0.1-0.2c0-0.3,0.1-0.5,0.1-0.8l0.1-0.4l0.1-0.4c0-0.3,0-0.6,0.1-0.8v-0.2l0.1-0.2l0.1-0.4
		c0.1-0.3,0.1-0.4,0.2-0.7c0.1-0.4,0.2-0.7,0.3-0.8l0.1-0.4v-0.2l0.1-0.1V44c0.1-0.3,0.2-0.5,0.3-0.8l0.2-0.4
		c0.1-0.1,0.1-0.2,0.2-0.3c0.1-0.4,0.3-0.7,0.4-0.8c0-0.1,0.1-0.3,0.1-0.4l0.2-0.4c0.1-0.3,0.2-0.4,0.3-0.7l0.6-1.5h0.1
		c0.1-0.3,0.2-0.6,0.5-1l0.1-0.3l0.1-0.1v-0.1c0.1-0.3,0.2-0.2,0.3-0.5c0.1-0.1,0.2-0.2,0.3-0.5c0.1-0.1,0.2-0.3,0.3-0.4
		c0.1-0.3,0.2-0.6,0.5-1c0.3-0.4,0.6-0.9,0.9-1.3c0.3-0.4,0.5-0.8,0.8-1.2c0.1-0.3,0.4-0.8,0.8-1.3c0.3-0.5,0.5-0.9,0.8-1.3h0.1
		c0.3-0.4,0.7-0.8,1.1-1.2l1.2-1.2c0.4-0.4,0.7-0.8,1.1-1.2h0.1c0.2-0.2,0.4-0.3,0.5-0.4c-0.1,0-0.2,0.1-0.5,0.4h-0.1
		c-0.3,0.3-0.7,0.8-1.1,1.2c0.4-0.4,0.7-0.8,1.1-1.2h0.1c0.4-0.4,0.9-0.7,1.4-1.1s0.9-0.7,1.4-1.1h0.1v-0.1l1.8-0.9l1.8-0.9h0.1H69
		c0.7-0.3,1.4-0.4,2.2-0.5c0.8-0.3,1.5-0.3,2.3-0.4h0.1h0.1c0.8,0.1,1.5,0.2,2.2,0.2l0.3,0.1l0.1,0.1l0.2,0.2l0.1,0.1
		c-0.3,0.1-0.4,0.2-0.5,0.2c-0.2,0-0.3,0-0.4,0.1c-0.3,0-0.6,0-0.7,0.1c-0.7,0-1.2,0.1-1.9,0.2h-0.2h-0.2c-0.1,0-0.1,0-0.2,0.1
		c0-0.1,0-0.1-0.1-0.1h0.1h-0.3h0.2l-0.9,0.3c-0.3,0.1-0.5,0.2-0.8,0.3c0-0.1,0-0.1,0.1-0.1c-0.1,0-0.2,0.1-0.3,0.1h0.2
		c-0.5,0.4-0.9,0.8-1.6,1.2v-0.1V24c-0.1,0.1-0.3,0.1-0.4,0.4l-0.2,0.2l-0.1,0.1l-0.1,0.1c-0.3,0.3-0.4,0.2-0.5,0.5
		c-0.1,0.1-0.2,0.2-0.3,0.2l-0.3,0.3c-0.1,0.1-0.2,0.3-0.5,0.6c-0.2,0.2-0.4,0.4-0.5,0.7l-0.2,0.2l-0.2,0.2
		c-0.1,0.1-0.2,0.3-0.3,0.4l-0.3,0.3h0.1c-0.1,0-0.1,0-0.1,0.1v-0.1c-0.1,0.3-0.3,0.7-0.4,1h-0.1c-0.2,0.3-0.4,0.7-0.7,1.1
		c-0.3,0.3-0.4,0.7-0.7,1.1v-0.1c0,0.1,0,0.1-0.1,0.1h0.1c-0.1,0.1-0.2,0.2-0.3,0.5l-0.1,0.2v0.1l-0.2,0.3c0,0.1-0.1,0.2-0.2,0.5
		v0.1v0.1h-0.1v0.1l-0.2,0.3L62,34l-0.1,0.2l-0.1,0.1l-0.2,0.6c-0.3,0.4-0.4,0.7-0.5,1.1L61,36.1c0-0.1,0-0.1,0.1-0.1
		c-0.1,0.3-0.1,0.5-0.2,0.8v0.1c-0.1,0.3-0.2,0.5-0.2,0.7h-0.1v0.1c-0.1,0.1-0.1,0.2-0.4,0.5l0.1-0.1c-0.1,0.1-0.1,0.1-0.1,0.2v-0.1
		v0.4v0.1l-0.1,0.1C60,39,60,39.1,59.9,39.2v-0.1c0,0.1,0,0.1-0.1,0.1h0.1c0,0,0,0.1-0.1,0.2v-0.1v0.1v0.1l0.1,0.1h-0.1l-0.2,1.1
		l-0.1,0.2l-0.1,0.2v0.1l-0.2,0.6L59,42.3v0.1h-0.1v0.1v-0.1v0.1l-0.1,0.3c-0.1,0.3-0.1,0.6-0.2,1c-0.1,0.5-0.2,1-0.2,1.3v0.1h-0.1
		c-0.1,0.4-0.1,0.9-0.4,1.3v0.1v-0.1c0,0.6,0,1,0.1,1.3V48l-0.3,0.9l-0.1,0.4v0.1v-0.1c0.1,0.4,0.1,0.9,0.2,1.3v-0.1v0.1l0.2,0.5H58
		c-0.1-0.3-0.2-0.4-0.3-0.5c0.1,0.1,0.2,0.2,0.3,0.5l0.5-0.3l0.8-1.1l0.1-0.1l1.2-1.2v0.1v-0.1c0.3-0.4,0.5-0.8,0.8-1.2
		c0.3-0.4,0.7-0.9,1-1.3l0.6-0.9l0.1-0.3l0.1-0.1l0.1-0.2l0.3-0.4l0.4-0.5l0.1-0.1v-0.1l0.1-0.1l0.2-0.2c0.3-0.3,0.4-0.6,0.7-0.9
		v-0.1V42c0.3-0.5,0.5-0.9,0.8-1.3c0.3-0.4,0.4-0.7,0.7-1.1l0.1-0.2c0.1-0.3,0.3-0.6,0.6-1l0.1-0.3h0.1V38l0.1-0.1l0.4-0.5l0.3-0.5
		l0.1-0.1v-0.1v0.1v-0.1l0.2-0.3c0.3-0.3,0.2-0.6,0.5-1h0.1c0.7-0.9,1.1-1.7,1.8-2.6c0.3-0.4,0.3-0.9,0.6-1.3v-0.1h0.1
		c0.3-0.5,0.6-0.9,1-1.3c0,0.1,0,0.1-0.1,0.1c0.1,0,0.1,0,0.1-0.1c0.1-0.1,0.2-0.4,0.3-0.8V29l0.1-0.1v-0.1l0.2-0.5
		c0.3-0.6,0.6-1.2,0.8-1.7l0.1-0.1l0.2-0.2c0.8-0.4,1.6-0.9,2.4-1.3l0.3-0.2h0.4h0.1c2-0.1,2.6,0.4,2.6,1.1c0,0.4-0.2,0.9-0.5,1.4
		c-0.2,0.2-0.3,0.4-0.4,0.7h-0.1h0.1c-0.3,0.5-0.4,1-0.7,1.5c0.3-0.5,0.4-1,0.7-1.5c0.1-0.3,0.1-0.4,0.4-0.7l0.1-0.1
		c-0.3,0.3-0.2,0.5-0.5,0.8c-0.3,0.7-0.5,1.1-0.8,1.8l-0.3,0.6v0.1l-0.1,0.1v0.1l-0.2,0.2c-0.1,0.3-0.3,0.6-0.4,1v-0.1l-0.1,0.1h0.1
		c-0.1,0.3-0.2,0.4-0.3,0.7c0,0.1,0,0.3-0.1,0.4v0.2c-0.1,0-0.1,0.1-0.1,0.2c-0.1,0.3-0.2,0.5-0.2,0.7c-0.1,0.1-0.1,0.2-0.2,0.3v0.1
		v0.1l-0.1,0.2c-0.1,0.3-0.2,0.5-0.2,0.6c-0.1,0-0.1,0.1-0.1,0.2c-0.1,0.1-0.1,0.1-0.1,0.2v0.1h-0.1l-0.6,1.2
		c-0.1,0.4-0.2,0.8-0.5,1.3c-0.3,0.8-0.2,0.5-0.1,0c-0.1,0.4-0.2,0.7-0.3,1.1v0.2h-0.1v0.1V40c0,0.1-0.1,0.2-0.1,0.3
		c-0.1,0.1-0.2,0.4-0.3,0.8l-0.3,1.2c-0.1,0.4,0.1-0.5,0.2-1.2c0-0.1,0-0.2,0.1-0.3c-0.1,0.1-0.1,0.2-0.1,0.3
		c-0.1,0.4-0.2,0.9-0.3,1.3c-0.1,0.5-0.3,0.9-0.4,1.3v0.1c-0.1,0.4-0.2,0.7-0.3,0.8c-0.1,0.3-0.1,0.2-0.2,0.5V45v0.1
		c0,0.3-0.1,0.6-0.1,0.9l-0.1,0.3v0.1v0.1v0.1c-0.3,0.5-0.3,1-0.4,1.4v-0.2v-0.1l0.1-0.1c0-0.3,0-0.4,0.1-0.5v-0.5l0.1-0.2v-0.1V46
		c0.1-0.3,0.1-0.6,0.2-0.9c0.1-0.5,0.3-0.9,0.4-1.3h0.1v-0.1c0.1-0.4,0.2-0.9,0.3-1.3c0.1-0.4,0.1-0.9,0.2-1.3
		c0.1-0.1,0.1-0.2,0.1-0.3c0,0.1,0,0.2-0.1,0.3c-0.1,0.3-0.1,0.7-0.2,1.1c0,0.1-0.1,0.1-0.1,0.2v0.2c0,0.1-0.1,0.2-0.1,0.3
		c-0.1,0.4-0.2,0.7-0.2,0.8v0.1c-0.3,0.5-0.4,1-0.5,1.3V45v0.1c-0.1,0.3-0.1,0.6-0.2,0.9v0.2v0.1v0.1v0.1c-0.1,0.1-0.1,0.2-0.1,0.5
		c-0.1,0.1-0.1,0.2-0.1,0.5l-0.1,0.1v0.1v0.3c0,0.3-0.1,0.5-0.1,0.8c-0.1,0.5-0.2,0.9-0.3,1.6c-0.3,1.2-0.4,2.5-0.5,3.8
		c-0.1,0-0.1,0-0.1,0.1c0.3-0.4,0.6-0.8,1-1.3c-0.1,0.1-0.1,0.2-0.2,0.3c-0.3,0.3-0.6,0.7-0.8,1.1c-0.1,0-0.1,0-0.1,0.1l0.2-0.2
		c0.1-0.3,0.2-0.4,0.2-0.4v0.1c0.3-0.3,0.4-0.6,0.7-0.9l-0.1,0.1c0.4-0.5,0.8-1,1.1-1.4c-0.1,0.1-0.1,0.2-0.4,0.5
		c0.5-0.7,0.8-0.9,1.3-1.6l0.3-0.3l0.2-0.4l0.5-0.6c0.4-0.5,0.8-0.9,1.1-1.4c0.4-0.4,0.8-0.9,1.2-1.3c0.1-0.2,0.2-0.4,0.5-0.7
		s0.5-0.5,0.6-0.7l0.7-0.7c0.3-0.3,0.5-0.5,0.6-0.7c0.3-0.3,0.4-0.5,0.7-0.8l0.8-0.8l0.9-0.9c0.5-0.5,1-1.1,1.7-1.6
		c0.4-0.4,1-0.9,1.5-1.4c0.1-0.1,0.3-0.2,0.5-0.4l0.2-0.2c0.1,0,0.1-0.1,0.2-0.1c0.1-0.1,0.3-0.3,0.5-0.4l0.2-0.2
		c0.3-0.1,0.5-0.2,0.7-0.4H88c0.1,0,0.2,0.1,0.3,0.1h0.1L88,37.2c0.1-0.1,0.1-0.1,0.1,0c-0.1,0-0.1,0-0.2,0.1
		c0.2-0.1,0.3-0.2,0.4-0.4v0.1c0.1,0,0.1,0,0.1-0.1h0.2c-0.1,0.1-0.2,0.3-0.3,0.4v-0.1c0,0.1-0.1,0.2-0.2,0.2
		C88.4,37.3,88.4,37,88.7,36.9z M64.6,45c-1.6,2.3-3.5,4.6-5.5,6.6c0.1,0,0.2-0.1,0.5-0.2l0.1-0.1l0.1-0.1l0.9-1.2l1.2-1.2h0.1v-0.1
		l0.9-1.2c0.3-0.5,0.6-0.9,1-1.3c0.1-0.3,0.3-0.6,0.6-1V45z M70.4,36.5c-0.5,0.7-0.9,1.2-1.3,1.9l-0.6,0.9c0,0.1,0,0.2-0.1,0.2v-0.1
		c-0.4,0.7-0.8,1.2-0.9,1.5l-0.1,0.2c-0.5,0.7-0.9,1.4-1.6,2.2l0.2-0.2c0.3-0.3,0.5-0.6,0.8-0.9v-0.1c0.3-0.3,0.5-0.7,0.8-1.1
		c0.1-0.3,0.4-0.7,0.7-1.1c0-0.1,0.1-0.2,0.2-0.3l0.1-0.2l-0.1-0.1c0.3-0.3,0.2-0.4,0.5-0.7l0.2-0.2v-0.2l0.1-0.1
		c0.1-0.1,0.2-0.2,0.3-0.5l0.4-0.4l0.1-0.2v-0.1h0.1c0-0.1,0.1-0.2,0.1-0.3L70.4,36.5z M71.7,54.2c-0.1,0.1-0.7,0.8-0.6,0.9
		L71.7,54.2z M77.9,46.3c-0.1,0.3-0.2,0.2-0.3,0.5c0.3-0.4,0.5-0.7,0.6-0.8c0.3-0.3,0.5-0.6,0.8-0.9c-0.3,0.3-0.4,0.5-0.7,0.8
		C78.2,46,78.2,46.2,77.9,46.3z M84.3,39.9c0.2-0.2,0.4-0.3,0.5-0.4c-0.1,0.1-0.3,0.2-0.6,0.5s-0.3,0.2-0.6,0.5l-1.1,1.1
		c0.5-0.5,0.9-0.9,1.2-1.1L84.3,39.9z M87.5,37.7c0.1-0.1,0.3-0.3,0.6-0.4C88,37.3,87.8,37.4,87.5,37.7l0.1-0.1L87.5,37.7z
		 M88.4,36.8c-0.1,0.2-0.2,0.3-0.4,0.4L88.4,36.8z"/>
	<path class="st0" d="M100.1,40.7c-0.3,0.4-0.4,0.8-0.7,1.1c-0.1,0.1-0.1,0.2-0.2,0.3c-0.1,0.1-0.2,0.3-0.4,0.5
		c-0.1,0.1-0.2,0.3-0.4,0.5c-0.3,0.5-0.6,0.9-0.9,1.2c-0.3,0.4-0.5,0.7-0.8,1c-0.1,0.1-0.2,0.3-0.3,0.4l-0.1,0.1
		c-0.1,0.1-0.3,0.3-0.4,0.6c-0.1,0-0.1,0-0.2,0.1h-0.1c0,0.1-0.1,0.2-0.1,0.3c-0.1,0-0.1,0-0.1,0.1l-0.2,0.2
		c-0.3,0.1-0.4,0.3-0.5,0.6h-0.1c0,0.1-0.1,0.1-0.1,0.2l-0.1,0.1V48v0.1l-0.1,0.1c-0.1,0.2-0.2,0.3-0.3,0.3
		c-0.1,0.2-0.2,0.4-0.5,0.7c-0.1,0.1-0.2,0.3-0.4,0.5c-0.1,0.1-0.3,0.1-0.4,0.4c-0.4,0.4-0.7,0.7-0.8,0.9c-0.3,0.3-0.6,0.5-0.9,0.8
		c-0.3,0.3-0.4,0.3-0.5,0.4c-0.1,0.1-0.1,0.1-0.1,0.2c-0.3,0.3-0.4,0.5-0.5,0.6c-0.3,0.1-0.5,0.3-0.7,0.5l-0.7,0.7
		c-0.1,0.1-0.3,0.2-0.4,0.3c-0.1,0.1-0.8,0.6-0.1,0.1c-0.3,0.1-0.2,0.3-0.5,0.4c0,0.1,0,0.1-0.1,0.1l-0.5,0.5
		c-0.3,0.1-0.4,0.1-0.7,0.4c-0.5,0.3-1.1,0.6-1.6,0.9c-0.3,0.1-0.4,0.2-0.5,0.3c-0.1,0-0.2,0.1-0.3,0.1c-0.3,0.1-0.5,0.2-0.8,0.3
		h-0.5h-0.1c-0.3,0.1-0.3,0-0.6,0c-0.1,0-0.2-0.1-0.3-0.1c-0.3-0.3-0.4-0.3-0.5-0.4c-0.4-0.4-0.6-0.7-0.7-1c-0.1-0.3,0.1-0.4,0-0.7
		v-0.2C80.1,55.1,80,55,80,54.9c0-0.4,0.1-0.8,0.1-1.2c0-0.5,0.1-1.1,0.1-1.6l0.3-1.5c0.1-0.5,0.3-1,0.4-1.5
		c0.1-0.7,0.2-1.1,0.3-1.6c0.1-0.7,0.3-1.2,0.4-1.5c0.1-0.3,0.2-0.8,0.5-1.5c0.1-0.5,0.1-0.9,0.4-1.6c0.1-0.7,0.3-1.2,0.4-1.5
		c0.3-0.7,0.4-1.2,0.5-1.5c0.1-0.1,0.2-0.4,0.3-0.8c0.1-0.3,0.2,0,0.3-0.3c0-0.1,0.1-0.3,0.1-0.4c0.3-0.5,0.4-1.1,0.7-1.6
		c0.3-0.4,0.5-0.9,0.9-1.4c0.3-0.4,0.8-0.8,1.2-1.2c0.4-0.4,0.7-0.8,1.2-1.1c0.4-0.4,0.9-0.6,1.4-0.9c0.1,0,0.1,0,0.2-0.1
		c0.1-0.1,0.2-0.1,0.3-0.1c0.2,0,0.3,0,0.4-0.1h0.2c0.1,0,0.1,0,0.1-0.1h0.6h0.5H92l0.6,0.2C92.3,31.7,92.9,32,93,32v0.1
		c0.1,0,0.1,0,0.2,0.1v0.1c0,0.3,0.1,0.2,0.1,0.5c0,0.1-0.1,0.4-0.2,0.8L93,34.1c-0.1,0.4-0.1,0.8-0.2,1.2c-0.1,0.4-0.3,0.8-0.4,1.2
		c-0.3,0.5-0.2,0.9-0.5,1.6c-0.3,0.5-0.5,1-0.6,1.3l-0.1,0.1v0.2c-0.3,0.5-0.2,1-0.5,1.5c-0.1,0.4-0.2,0.8-0.5,1.3
		c-0.3,0.4-0.3,0.9-0.4,1.3c-0.3,0.5-0.4,0.8-0.7,1.3c-0.3,0.4-0.2,0.8-0.5,1.3c-0.3,0.4-0.3,0.9-0.4,1.3c-0.3,0.4-0.1,0.9-0.4,1.4
		c-0.1,0.4-0.3,0.8-0.4,1.3c-0.3,0.5-0.4,1-0.5,1.3l-0.3,0.6c0,0.3,0.1,0.4,0,0.7c0,0.1-0.1,0.3-0.2,0.6v0.4v0.3
		c0.1-0.1,0.2-0.2,0.5-0.3c0.1-0.1,0.1-0.1,0.1-0.2l0.7-0.7c0.3-0.3,0.4-0.5,0.7-0.8c0.4-0.3,0.8-0.7,1.3-1.1
		c0.4-0.4,0.7-0.9,1.1-1.4c0.5-0.4,0.9-0.9,1.3-1.3c0.4-0.5,0.9-1,1.3-1.4c0.1-0.2,0.2-0.3,0.4-0.4c0-0.1,0.7-1.1,1-1.2
		c0.5-0.7,1.1-1.1,1.6-1.8v-0.2c0.1-0.1,0.2-0.3,0.3-0.4c0.1-0.1,0.2-0.3,0.3-0.4l0.1-0.1c0.2-0.2,0.4-0.6,0.7-1.1
		c0.7-0.7,1.2-1.2,1.7-1.9c0.3-0.3,0.3-0.7,0.6-1c0.4-0.6,0.8-1.1,1.1-1.5c0.7-0.7,1.3-1.4,1.8-1.3
		C103.9,36.1,101.3,39.6,100.1,40.7z M89.3,44.1c0.3-0.5,0.4-0.9,0.5-1.4c0.3-0.4,0.2-0.9,0.5-1.4L90,41.9c-0.1,0.7-0.3,1.1-0.4,1.4
		c-0.3,0.5-0.4,0.9-0.5,1.4C88.8,45.4,89.2,44.4,89.3,44.1z M89.7,25.9v-0.4c0-0.3,0.1-0.5,0.1-0.8l0.2-0.6c0.1-0.1,0.2-0.4,0.3-0.5
		c0.3-0.3,0.7-0.5,1-0.8c0.3-0.3,0.6-0.5,1-0.8c0.3-0.3,0.7-0.5,1.1-0.6c0.4-0.3,0.9-0.2,1.3-0.3h0.3h0.2h0.1c0.1,0,0.2,0.1,0.3,0.1
		c0.2,0,0.3,0,0.4,0.1c0.1,0,0.2,0.1,0.4,0.3c0.1,0.3,0.3,0.2,0.3,0.5c0.1,0.3,0,0.6-0.1,1s-0.3,0.7-0.6,1c-0.1,0.4-0.3,0.7-0.4,0.9
		c-0.4,0.7-0.9,1.1-1.3,1.6c-0.1,0.1-0.3,0.4-0.6,0.8c-0.3,0.3-0.5,0.3-0.8,0.4L92.9,28h-0.1h-0.2c-0.1,0-0.1,0.1-0.2,0.1
		c-0.1,0-0.1,0-0.2,0.1c-0.3,0-0.5,0-0.6,0.1h-0.4h-0.6c-0.3-0.1-0.5-0.3-0.6-0.6v-0.1c0-0.1-0.1-0.1-0.1-0.2
		C89.8,26.9,89.7,26.3,89.7,25.9z M93.5,27.3c0.7-0.5,1-1,1.4-1.5C94.5,26.2,94,26.8,93.5,27.3z M97.7,43.9h-0.1
		c-0.1,0.3-0.2,0.2-0.3,0.5c-0.2,0.3-0.5,0.6-1,1.1c-0.1,0.1-0.1,0.3-0.2,0.4l1.2-1.5c0.2-0.1,0.3-0.2,0.3-0.5H97.7z M96.2,23.8
		l0.1-0.1c0.1-0.3,0.1-0.4,0.2-0.7c-0.1,0.2-0.2,0.4-0.3,0.7V23.8z"/>
	<path class="st0" d="M132.3,36l-0.1,0.1c-0.1,0.1-0.2,0.2-0.5,0.3c-0.7,0.7-1.5,1.1-2.3,1.8c-0.7,0.7-1.2,1.1-1.9,1.8l-0.3,0.3
		c-0.2,0.1-0.5,0.4-0.9,0.8l-0.3,0.3c-0.2,0.1-0.4,0.3-0.7,0.6c-1.5,1.5-3.1,2.9-3.9,4.8c-0.1,0.2-0.3,0.4-0.4,0.7
		c-0.3,0.5-0.5,1.2-0.6,1.9l-1.5,3.6c-0.5,1.2-1.2,2.4-2.1,3.7c-0.2,0.3-0.6,0.7-1.1,1.2l-0.1,0.1c0,0-0.1,0.1-0.4,0.2l-0.1,0.1
		h-0.2h-0.3h-0.4h-0.3c-0.1,0-0.1,0-0.1-0.1h-0.1c-0.1,0-0.2-0.1-0.5-0.2h0.1c-0.1,0-0.1,0-0.2-0.1c-0.1,0-0.3-0.1-0.4-0.2v-0.1
		c-0.1,0-0.1,0-0.1-0.1l-0.2-0.2l-0.2-0.6v-0.3v-0.1c-0.1-0.1-0.1-0.3-0.1-0.6v-0.1c0-0.4,0-0.7,0.1-1c0-0.4,0-0.7,0.1-0.9
		c0-0.1,0-0.2,0.1-0.2v-0.1c0.3-1.2,0.6-2.4,0.5-3.6c0.1-0.1,0.1-0.2,0.1-0.3c0.1-0.4,0.1-0.9,0.4-1.3c0.1-0.5,0.3-1,0.4-1.3
		c0-0.3,0.1-0.3,0.1-0.4l0.1-0.1v-0.2c0-0.3,0.1-0.3,0.1-0.6c0.1-0.3,0.1-0.5,0.2-0.8c0-0.1,0-0.1,0.1-0.2v-0.1
		c0.1-0.3,0.2-0.4,0.2-0.4c0-0.1,0.1-0.4,0.2-0.8c0-0.1,0.1-0.2,0.1-0.3c0.1-0.3,0.1-0.2,0.2-0.5c0.1-0.3,0.2-0.4,0.3-0.7
		c0.1-0.1,0.1-0.2,0.2-0.3v-0.1v-0.1l0.1-0.1c0.1-0.5,0.3-1,0.4-1.5l0.1-0.1v-0.1l0.1-0.2v-0.3c0.1-0.4,0.2-0.7,0.2-0.8
		c0.3-0.7,0.4-1.2,0.7-1.7c0.1-0.4,0.1-0.8,0.4-1.5l0.3-0.9c0.1-0.3,0.2-0.5,0.3-0.8v-0.2V33l0.1-0.1v-0.3c0.1-0.2,0.1-0.5,0.1-0.8
		l0.1-0.3v-0.1c0.1-0.4,0.2-0.7,0.2-0.9c0.1-0.4,0.3-0.8,0.3-1.2c-0.1,0-0.1,0-0.1-0.1s0-0.1-0.1-0.1h-0.1c0,0.1-0.1,0.1-0.2,0.1
		c-0.1,0.1-0.2,0.1-0.3,0.1l-0.6,0.3c-0.1,0.1-0.2,0.1-0.3,0.2h-0.1l-0.1,0.1c-0.1,0-0.1,0-0.2,0.1l-0.6,0.2l-0.1,0.1H116l-0.1,0.1
		c-0.3,0.3-0.3,0.2-0.6,0.5l-0.2,0.1v0.1H115c-0.1,0.1-0.3,0.2-0.4,0.3c-0.3,0.1-0.5,0.3-0.6,0.4h-0.1v0.1h-0.1
		c-0.1,0.1-0.1,0.2-0.2,0.3c-0.2,0.1-0.4,0.3-0.5,0.5l-0.1,0.1h-0.1l-0.1,0.2l-0.3,0.2c-0.3,0.3-0.4,0.2-0.5,0.5l-0.3,0.2l-0.3,0.3
		l-0.4,0.4l-0.1,0.1l-0.2,0.2c-0.1,0.3-0.2,0.4-0.3,0.5c-0.1,0.1-0.1,0.2-0.2,0.3l-0.2,0.2c-0.3,0.3-0.5,0.6-0.8,0.9l-0.2,0.2
		c-0.1,0-0.2,0.1-0.2,0.2l-0.4,0.4v0.1v-0.1c0,0.1-0.1,0.2-0.2,0.3c0,0.1,0,0.1-0.1,0.2c-0.1,0.1-0.2,0.3-0.3,0.4
		c0,0.1-0.1,0.2-0.1,0.3h-0.1V39l-0.1,0.1c-0.2,0.2-0.3,0.4-0.4,0.5c-0.1,0.1-0.2,0.3-0.3,0.4c-0.1,0.1-0.2,0.3-0.3,0.4
		c-0.1,0.3-0.2,0.2-0.3,0.5l-0.2,0.2c0,0.1-0.1,0.2-0.1,0.3c-0.1,0.1-0.2,0.3-0.3,0.4l-0.2,0.3c-0.1,0.1-0.1,0.2-0.2,0.3
		c-0.1,0.3-0.3,0.2-0.4,0.5c-0.1,0.1-0.2,0.3-0.3,0.4l-0.1,0.1l-0.1,0.1c0,0.1,0,0.1-0.1,0.2c-0.3,0.3-0.2,0.4-0.5,0.7v0.1l-0.1,0.1
		l-0.2,0.2c0,0.1-0.1,0.2-0.2,0.2c0,0.1,0,0.1-0.1,0.1v0.1l-0.1,0.1v-0.1h0.1h-0.1c-0.1,0.3-0.2,0.4-0.3,0.7c-0.3,0.4-0.8,2-0.9,2.1
		c-0.3,1.1-0.4,1.9-0.7,2.8v0.2v0.2c0,0,0,0.1-0.1,0.2V52v0.6c0,0.3-0.1,0.3-0.1,0.6c-0.1,0.5-0.2,0.9-0.2,1.2v-0.1l-0.1,0.1h0.1
		c-0.1,0.1-0.1,0.4-0.1,0.7c-0.1,0.1-0.1,0.3-0.2,0.4c0,0.3-0.1,0.3-0.1,0.4l-0.2,0.3l-0.1,0.2c0,0.1,0,0.1-0.1,0.2
		c-0.1,0.2-0.3,0.5-0.6,0.8c-0.2,0.2-0.4,0.3-0.5,0.4L98,58h-0.2h-0.1h-0.1h-0.1h-0.1h-0.1h-0.4c-0.1-0.1-0.3-0.1-0.4-0.2l-0.2-0.2
		c-0.7-0.5-1.1-1.2-1.4-1.9v-0.1c-0.1-0.3-0.1-0.2-0.2-0.5v-0.3c-0.1-1.5,0-3.1,0.3-4.6l-0.1,1c0.8-6,2-11.5,4.3-17.1
		c0.8-2,1.6-3.8,2.7-5.8c0.3-0.3,0.3-0.7,0.6-1l0.1-0.1c0.5-0.8,0.9-1.6,1.6-2.4c0.5-0.8,1.1-1.5,1.6-2.3v-0.1
		c0.1-0.1,0.2-0.2,0.3-0.2c0.4-0.4,0.7-0.6,1-0.9l0.1-0.1c0.3-0.1,0.4-0.2,0.8-0.5c0,0,0.2-0.1,0.6-0.2c0.2,0,0.4,0,0.5,0.1
		c0.2,0,0.3,0.1,0.3,0.2h0.1v0.1h0.1V21c0.1,0.1,0.1,0.1,0.1,0.2c0.1,0.3,0.1,0.2,0.2,0.5v0.7c0,0.3-0.1,0.5-0.1,0.8
		s-0.1,0.4-0.1,0.7c-0.1,0.3-0.1,0.4-0.2,0.7l-0.1,0.6c-0.1,0.3-0.1,0.4-0.2,0.7l-0.1,0.4l-0.1,0.3c0,0.2-0.1,0.4-0.2,0.7
		c0,0.2-0.1,0.4-0.2,0.7l-0.3,0.7c0,0.1-0.1,0.3-0.2,0.7c-0.1,0.3-0.3,0.8-0.6,1.3v0.1l-0.1,0.1l-0.1,0.1l-0.1,0.4l-0.3,0.6
		l-0.1,0.3c-0.1,0.1-0.1,0.2-0.1,0.3c-0.1,0.3-0.2,0.4-0.3,0.7l-0.1,0.3l-0.1,0.4l-0.3,0.6l-0.2,0.7l-0.1,0.3
		c-0.1,0.1-0.1,0.2-0.1,0.3c-0.1,0.4-0.3,0.9-0.4,1.4c-0.3,0.5-0.5,1-0.6,1.4c-0.1,0-0.1,0-0.1,0.1v0.1l-0.1,0.1l-0.1,0.3l-0.2,0.6
		l-0.5,1.4c0,0.1-0.1,0.3-0.2,0.6c0,0.1,0,0.2-0.1,0.3l0.3-0.3l0.2-0.2c0.1-0.1,0.1-0.1,0.1-0.2h0.1v-0.1l0.9-1.2
		c0.1-0.1,0.1-0.2,0.2-0.3c0.1-0.3,0.3-0.5,0.4-0.6c0-0.1,0.1-0.1,0.1-0.2l0.2-0.2c0.1-0.1,0.1-0.2,0.2-0.3c0.1-0.1,0.2-0.3,0.3-0.4
		l0.3-0.3c0-0.1,0.1-0.2,0.2-0.3c0.1-0.1,0.2-0.3,0.2-0.4l0.4-0.4c0.1-0.1,0.2-0.3,0.3-0.4l0.3-0.3l0.1-0.1l0.2-0.3l0.3-0.3
		c0.3-0.4,0.6-0.7,0.9-1.1l0.2-0.2c0,0,0-0.1,0.1-0.2c0.1,0,0.1,0,0.1-0.1h0.1v-0.1l0.3-0.3l0.3-0.3c0-0.1,0.1-0.2,0.2-0.3l0.1-0.1
		l0.2-0.2c0.3-0.3,0.4-0.2,0.5-0.5l0.9-0.9c0.2-0.1,0.5-0.4,0.9-0.8l0.2-0.2l0.2-0.2l0.2-0.2l0.3-0.2c0.3-0.3,0.6-0.6,0.9-0.8
		l0.1-0.1l0.2-0.1c0.1,0,0.2-0.1,0.3-0.2l0.6-0.3c0.3-0.1,0.4-0.1,0.5-0.2c0.1,0,0.2-0.1,0.3-0.1c0.1,0,0.1-0.1,0.2-0.1
		c0.5-0.3,1-0.4,1.3-0.5c0.1,0,0.2-0.1,0.3-0.1h0.2c0.1,0,0.1,0,0.1-0.1h0.2h0.2h0.3h1.2h0.2h0.3h0.6c0.3,0,0.3,0.1,0.6,0.1
		c0.1,0,0.1,0,0.2,0.1h0.1h0.1v0.1h0.1c0.1,0,0.1,0,0.2,0.1c0.4,0.3,0.7,0.5,0.8,0.7c0.1,0.1,0.2,0.3,0.3,0.4
		c0.1,0.3,0.2,0.2,0.3,0.5c0.3,0.4,0.4,0.7,0.5,0.9c0.1,0.3,0.1,0.6,0.1,1.1c0.1,0.1,0.1,0.3,0.1,0.5v0.3V32
		c-0.1,0.4-0.1,0.8-0.2,1.1v0.5c-0.1,0.1-0.1,0.2-0.1,0.5c-0.1,0.8-0.3,1.5-0.4,2l-0.1,0.5l-0.1,0.5c-0.1,0.3-0.2,0.7-0.3,1
		l-0.1,0.5c0,0.1-0.1,0.3-0.1,0.4c-0.1,0.3-0.1,0.7-0.2,1c-0.1,0.3-0.2,0.6-0.3,1l-0.2,0.5l-0.1,0.2l-0.4,0.9
		c0.1-0.2,0.3-0.4,0.5-0.6l0.6-0.6l0.3-0.3l0.3-0.3l0.3-0.3c0.1-0.1,0.3-0.2,0.4-0.3L126,40l0.3-0.3l1-1l0.2-0.2l0.2-0.1l0.1-0.1
		L128,38l0.3-0.2l0.2-0.1v-0.1h0.1l0.3-0.2c0.1-0.1,0.2-0.2,0.3-0.2l0.1-0.1l0.2-0.1l0.3-0.2l0.2-0.2l0.2-0.1l0.1-0.1l0.3-0.2
		c0.3-0.1,0.2-0.2,0.5-0.3l0.2-0.2c0.3,0,0.4,0,0.5-0.1c0.1,0.1,0.3,0.1,0.4,0.1c0,0.1,0.1,0.2,0.1,0.3V36z M104.4,37.6
		c0.1-0.1,0.1-0.3,0.2-0.4C104.6,37.2,104.5,37.3,104.4,37.6z M108.3,27.3c0-0.2,0-0.4,0.1-0.5c0-0.1,0-0.1,0.1-0.2l-0.2,0.6
		c-0.1,0.4-0.3,0.8-0.4,1.2c0,0.1,0,0.1-0.1,0.1c0.1-0.1,0.1-0.1,0.1-0.2C108,28,108.2,27.6,108.3,27.3z"/>
	<path class="st0" d="M160.8,38.4c-0.1,0.1-0.1,0.1-0.2,0.1v0.1c-0.3,0.1-0.4,0.3-0.5,0.4c0,0-0.1,0.1-0.4,0.2l-0.1,0.1l-0.2,0.2
		c-0.3,0.1-0.4,0.3-0.7,0.4l-0.1,0.1v0.1h-0.1c-0.1,0.1-0.2,0.1-0.3,0.2c-0.1,0.1-0.2,0.2-0.5,0.3c-0.1,0-0.2,0.1-0.2,0.2h-0.2v0.1
		h-0.1l-0.1,0.1l-0.1,0.1l-0.2,0.2c-0.1,0-0.2,0.1-0.3,0.2l-0.2,0.2h-0.1h-0.1v0.1c-0.1,0-0.1,0-0.2,0.1h-0.1l-0.1,0.1h-0.1h-0.1
		l-0.1,0.1c-0.1,0-0.1,0-0.2,0.1h-0.1H155v0.1h-0.1l-0.1,0.1l-0.1,0.1l-0.1,0.1c-0.1,0-0.2,0.1-0.2,0.2c-0.1,0.1-0.2,0.1-0.3,0.2
		l-0.1,0.1h-0.1v0.1h-0.1c-0.1,0.1-0.1,0.1-0.2,0.1l-0.1,0.1h-0.1h0.2c-0.1,0-0.3,0-0.4,0.1l-0.1,0.1c-0.1,0-0.1,0-0.2,0.1
		c0,0-0.1,0-0.2,0.1l-0.1,0.1c-0.1,0.1-0.3,0.2-0.4,0.3c-0.1,0-0.3,0.1-0.4,0.2l-0.2,0.2h-0.1v0.1v-0.1v0.1h-0.1
		c-0.1,0.1-0.3,0.2-0.4,0.3l-0.1,0.1v0.2c0.1-0.1,0.3-0.2,0.4-0.3l0.2-0.2h0.1v-0.1h0.1c0.1-0.1,0.3-0.1,0.4-0.4l-0.4,0.4h-0.1v0.1
		c-0.1,0-0.1,0-0.2,0.1c-0.3,0.3-0.4,0.3-0.5,0.4c-0.1,0.1-0.1,0.1-0.1,0.2c-0.1,0.3-0.1,0.5-0.2,0.8c-0.1,0.1-0.1,0.2-0.1,0.3
		c-0.1,0.1-0.1,0.1-0.1,0.2c0,0.1,0,0.2-0.1,0.2c0,0.2-0.1,0.5-0.2,0.9v0.2l0.1-0.2c-0.1,0.3-0.2,0.4-0.3,0.7
		c-0.1,0.1-0.2,0.4-0.3,0.8c-0.1,0.1-0.2,0.4-0.3,0.8c-0.1,0.1-0.2,0.4-0.3,0.8c-0.1,0.4-0.2,0.7-0.3,0.8c-0.1,0.1-0.1,0.2-0.2,0.3
		v0.2v0.1h-0.1c-0.1,0.4-0.2,0.7-0.3,0.9c0,0.1,0.2-0.5,0.3-0.6c0,0-0.1,0.2-0.2,0.6c-0.1,0.1-0.1,0.3-0.2,0.4c0,0.1,0,0.1-0.1,0.2
		l0.1-0.1v-0.2c0.1-0.1,0.1-0.2,0.2-0.3l0.3-0.9c0.1-0.4,0.3-0.7,0.4-0.9c0-0.1,0.1-0.3,0.2-0.4c0-0.3,0.1-0.2,0.1-0.5
		c-0.1,0.3-0.1,0.3,0,0.2c0-0.3,0.2-0.6,0.3-1c-0.1,0.3-0.1,0.8-0.4,1.2c-0.3,0.7-0.5,1.1-0.6,1.4c-0.1,0.3-0.2,0.5-0.3,0.8
		c0,0.3-0.1,0.3-0.1,0.4l-0.1,0.2c0,0.1-0.1,0.1-0.1,0.2c0,0.3-0.1,0.5-0.2,0.8c0,0.3-0.1,0.2-0.1,0.5c0,0-0.1,0.1-0.2,0.4
		c-0.1,0.3-0.1,0.4-0.2,0.7c-0.1,0.2-0.2,0.4-0.3,0.7c-0.1,0.2-0.2,0.4-0.3,0.7V58c0,0.1,0,0.1-0.1,0.2c0,0.1-0.1,0.2-0.1,0.3
		c-0.1,0.1-0.2,0.3-0.3,0.4c-0.1,0.3-0.2,0.4-0.2,0.4c0,0.1-0.1,0.1-0.1,0.2v0.1c0-0.1,0-0.1,0.1-0.1v-0.2l0.1-0.1v-0.1
		c0.1-0.1,0.2-0.2,0.3-0.5c0.1-0.1,0.1-0.2,0.2-0.3l0.1-0.1V58c0.1-0.1,0.2-0.3,0.2-0.5c0.1-0.3,0.3-0.6,0.4-1
		c0.1-0.4,0.2-0.7,0.3-0.8c0,0.1-0.1,0.2-0.2,0.5c0,0.2-0.1,0.4-0.2,0.7c-0.1,0.4-0.2,0.7-0.3,0.8c-0.1,0.3-0.2,0.4-0.2,0.4
		c0,0.3-0.1,0.3-0.1,0.4c-0.1,0.1-0.1,0,0-0.1c0.1-0.1,0.1-0.1,0.1-0.2c0.1-0.1,0.1-0.1,0.1-0.2v-0.1c0.1-0.3,0.2-0.5,0.3-0.7
		c0,0-0.1,0.2-0.2,0.6c0,0.1-0.1,0.2-0.1,0.3c-0.1,0.3-0.2,0.4-0.2,0.4c-0.1,0.1-0.2,0.2-0.2,0.3l-0.1,0.1l0.2-0.2
		c-0.2,0.2-0.3,0.4-0.3,0.5c-0.1,0-0.1,0-0.1,0.1v0.1c-0.1,0.1-0.1,0.1-0.1,0.2c-0.1,0.3-0.3,0.5-0.4,0.8c-0.3,0.5-0.2,0.9-0.5,1.3
		c-0.1,0.3-0.1,0.2-0.2,0.5c-0.1,0.3-0.2,0.4-0.3,0.7c-0.1,0.1-0.2,0.4-0.3,0.8c-0.1,0.3-0.2,0.6-0.5,1c0.3-0.5,0.5-0.9,0.6-1.2
		c0.1-0.3,0.2-0.5,0.3-0.7c0.1-0.3,0-0.4,0.3-0.7l-0.1,0.1c0,0.1-0.1,0.2-0.2,0.5l0.3-0.6c0.1-0.3,0.2-0.5,0.2-0.6
		c0,0.1-0.1,0.3-0.1,0.4c-0.1,0.1-0.1,0.2-0.2,0.3c0,0.1,0,0.2-0.1,0.3c0,0.1-0.1,0.3-0.2,0.6c0,0.1-0.1,0.2-0.1,0.3
		c0,0.1-0.1,0.1-0.1,0.2v0.1l0.2-0.6c0.1-0.4,0.2-0.7,0.3-0.8c0,0.3-0.2,0.5-0.3,0.8c0,0.1,0,0.1-0.1,0.2v0.1c0,0.1,0,0.1-0.1,0.2
		c0,0.1-0.1,0.2-0.1,0.3l0.1-0.2c0,0,0.1-0.1,0.2-0.4c0-0.1,0.1-0.3,0.2-0.6c0-0.1,0.1-0.2,0.1-0.3c0,0,0-0.1,0.1-0.2v-0.1
		c0-0.1-0.1,0.1-0.2,0.5c0,0.2-0.1,0.4-0.2,0.7c-0.1,0.3-0.2,0.5-0.3,0.6c0,0,0-0.1,0.1-0.2c-0.1,0.3-0.3,0.6-0.4,0.9
		c-0.1,0.3-0.3,0.6-0.4,1c0.1-0.4,0.2-0.7,0.5-1.1c0.1-0.3,0.2-0.5,0.3-0.7l0.3-0.9c0,0.1,0,0.2-0.1,0.3c0,0.1,0,0.2-0.1,0.2
		c0,0.1,0,0.2-0.1,0.3c-0.1,0.3-0.3,0.6-0.4,1c-0.1,0.1-0.2,0.3-0.2,0.5c-0.1,0.1-0.2,0.3-0.2,0.4c-0.3,0.3-0.3,0.5-0.3,0.5
		c0.3-0.3,0.4-0.6,0.5-0.9c-0.3,0.3-0.6,1.1-0.7,1.4c0-0.1,0.1-0.1,0.1-0.2l0.1-0.1c0,0.1-0.1,0.2-0.4,0.9c0,0.1-0.1,0.1-0.1,0.2
		c0,0.1-0.1,0.1-0.1,0.2c0,0,0,0.1-0.1,0.2c-0.1,0.1-0.2,0.4-0.3,0.8c0,0.2-0.1,0.4-0.2,0.5s-0.1,0.3-0.2,0.4c0,0.1-0.1,0.3-0.2,0.4
		c0,0.1-0.1,0.2-0.1,0.3c-0.3,0.5-0.4,0.9-0.7,1.3l-0.1,0.2l-0.1,0.2c-0.1,0.1-0.1,0.2-0.2,0.3l-0.3,0.6c-0.1,0.1-0.2,0.3-0.2,0.4
		l-0.2,0.3l-0.2,0.3c0,0.1-0.1,0.2-0.2,0.3c-0.3,0.4-0.3,0.9-0.6,1.3c0,0.1-0.1,0.2-0.2,0.3c0,0.1-0.1,0.1-0.1,0.4l-0.3,0.6
		c-0.3,0.5-0.5,0.9-0.8,1.3l-0.2,0.3c-0.1,0.1-0.2,0.2-0.2,0.3c-0.3,0.3-0.3,0.4-0.4,0.5l-0.1,0.2l-0.1,0.1
		c-0.1,0.1-0.1,0.2-0.2,0.3c-0.1,0.3-0.2,0.5-0.3,0.7h-0.1v0.1l-0.1,0.1V81c-0.1,0.1-0.2,0.2-0.2,0.3c-0.3,0.3-0.2,0.4-0.5,0.5
		c-0.3,0.4-0.5,0.8-0.8,1.1l-0.3,0.3l-0.2,0.3c-0.1,0.3-0.3,0.2-0.4,0.5l-0.3,0.3l-0.1,0.1l-0.2,0.2c-0.3,0.1-0.3,0.3-0.6,0.4
		c-0.2,0.2-0.4,0.3-0.5,0.4c-0.2,0.2-0.4,0.3-0.5,0.4l-0.2,0.2l-0.1,0.1h-0.1l-0.1,0.1H130c-0.3,0.1-0.4,0.2-0.7,0.3H129v0.1h-0.1
		l-0.1,0.1c-0.1,0-0.3,0.1-0.7,0.2c0,0.1-0.1,0.1-0.2,0.1h-0.1l-0.1,0.1h-0.1h-0.1h-0.2h-0.7h-0.2h-0.1h-0.1c-0.3,0-0.5,0-0.6-0.1
		h-0.5c-0.3,0-0.3-0.1-0.6-0.1c-0.3,0-0.4-0.1-0.5-0.1l-0.6-0.2c-0.4-0.1-0.7-0.3-1-0.6h-0.1v-0.1c-0.1,0-0.1-0.1-0.2-0.1l-0.2-0.2
		c-0.1-0.3-0.2-0.2-0.3-0.5c-0.1-0.1-0.1-0.2-0.2-0.3v-0.1c0-0.1-0.1-0.1-0.1-0.2c0-0.1-0.1-0.2-0.2-0.5v-0.6
		c-0.1-0.1-0.1-0.3-0.1-0.5v-0.3c-0.1-0.1-0.1-0.2-0.1-0.3c0-0.3,0.1-0.3,0.1-0.6c0.1-0.2,0.1-0.6,0.1-1.1c0.1,0,0.1-0.1,0.1-0.2
		v-0.2v-0.1c0.1-0.3,0.1-0.2,0.2-0.5c0-0.1,0.1-0.3,0.2-0.6l0.1-0.3v-0.1c0-0.1,0.1-0.1,0.1-0.2c0.3-0.5,0.4-0.9,0.5-1.1l0.1-0.1V77
		c0-0.1,0.1-0.2,0.1-0.3l0.2-0.6c0-0.1,0.1-0.2,0.1-0.3l0.1-0.1v-0.1v-0.1l0.1-0.1c0.1-0.1,0.2-0.3,0.4-0.5c0.1-0.3,0.2-0.2,0.3-0.5
		v-0.1l0.1-0.1l0.2-0.3l0.2-0.5c0.1-0.3,0.2-0.4,0.3-0.5c0.3-0.3,0.2-0.7,0.5-1.1c0.3-0.3,0.3-0.3,0.4-0.6l0.3-0.5
		c0.2-0.4,0.4-0.7,0.7-1c0.1-0.3,0.2-0.4,0.3-0.5l0.1-0.2h0.1v-0.1l0.2-0.2l0.3-0.5c0-0.1,0.1-0.2,0.2-0.3l0.1-0.1v-0.1l0.8-1
		c0.3-0.3,0.4-0.7,0.7-1c0.1-0.1,0.1-0.2,0.4-0.5c0.1-0.1,0.1-0.3,0.4-0.4l0.1-0.3l0.2-0.2c0.2-0.2,0.3-0.4,0.4-0.5l0.3-0.5l0.2-0.2
		l0.2-0.2c0.3-0.4,0.4-0.7,0.7-1c0.4-0.4,0.7-0.7,0.8-0.9l0.1-0.1l0.1-0.1l0.2-0.3l0.4-0.4l0.3-0.5c0.3-0.3,0.4-0.2,0.5-0.5
		c0.1,0,0.1-0.1,0.2-0.1c0.1-0.3,0.2-0.2,0.3-0.5l0.4-0.4l0.1-0.1c0-0.1,0-0.1,0.1-0.1c0-0.1,0.1-0.2,0.1-0.3
		c0.1-0.1,0.1-0.1,0.1-0.2c0.1,0,0.1,0,0.1-0.1c0.3-0.3,0.5-0.6,0.8-0.9s0.5-0.6,0.8-0.9l0.4-0.4c0.1-0.1,0.2-0.3,0.4-0.5
		c0.1-0.1,0.2-0.3,0.3-0.4l0.5-0.5l0.4-0.4l0.2-0.2c0-0.1,0.1-0.2,0.2-0.2l0.8-0.8c0.1-0.3,0.3-0.3,0.4-0.4l0.4-0.5l0.1-0.1v-0.1
		h0.1v-0.1l0.1-0.1c0.1,0,0.1-0.1,0.2-0.1l0.3-0.3c0.1-0.1,0.2-0.3,0.4-0.5l0.2-0.2l0.2-0.2l0.2-0.2v-0.2c0,0,0.1-0.1,0.2-0.3
		c0.1,0,0.1,0,0.1-0.1l0.1-0.1h0.1v-0.1c0.1-0.4,0.2-0.7,0.3-1.1c0.1-0.3,0.1-0.5,0.2-0.8l0.1-0.2v-0.2c0-0.1,0.1-0.3,0.1-0.4
		c0.1-0.2,0.2-0.4,0.3-0.7v-0.1v-0.1c0,0,0-0.1,0.1-0.2v-0.3c0-0.3,0.1-0.5,0.1-0.8l0.1-0.4l0.1-0.4l0.1-0.4l0.1-0.2v-0.1v-0.1
		c0.1-0.3,0.2-0.5,0.3-0.8c0-0.1,0.1-0.2,0.1-0.3v-0.1l0.1-0.2c0-0.1,0.1-0.4,0.2-0.8c0-0.3,0.1-0.5,0.1-0.8
		c0.1-0.3,0.2-0.5,0.2-0.7c0.1-0.1,0.1-0.2,0.1-0.3v-0.3c0-0.3,0-0.6,0.1-0.8v-0.1v0.1v-0.1c0.1-0.3,0.2-0.6,0.3-1
		c0.1-0.1,0.1-0.2,0.1-0.3V35h0.1v-0.1v-0.2c0.1-0.1,0.1-0.3,0.1-0.5v0.1c-0.1,0.3-0.3,0.5-0.4,0.8c0,0.1-0.1,0.3-0.2,0.4
		c0,0.1-0.1,0.2-0.2,0.5c-0.1,0.3-0.3,0.4-0.4,0.7c0,0,0.1-0.3,0.4-0.8c0.1-0.1,0.1-0.2,0.2-0.3c0-0.1,0.1-0.2,0.2-0.3
		c0-0.1,0.1-0.3,0.2-0.6c-0.1,0.1-0.2,0.4-0.3,0.8c-0.3,0.3-0.2,0.6-0.5,0.9c-0.1,0.1-0.1,0.2-0.2,0.3l-0.1,0.1v0.1
		c0,0.1,0,0.1-0.1,0.2l-0.3,0.9c0,0.1,0,0.1-0.1,0.1v0.2l-0.2,0.2c-0.1,0.3-0.2,0.4-0.3,0.5s-0.2,0.3-0.3,0.4l-0.1,0.1v0.1h-0.1v0.1
		c-0.1,0.3-0.3,0.6-0.4,0.9l-0.1,0.1L144,41l-0.1,0.2c-0.1,0.1-0.2,0.3-0.2,0.4c-0.1,0.3-0.2,0.2-0.3,0.5c-0.1,0.1-0.2,0.2-0.3,0.5
		c-0.3,0.3-0.2,0.5-0.5,0.8c-0.1,0.1-0.2,0.3-0.3,0.4c0,0.1-0.1,0.2-0.2,0.5c-0.1,0.3,0,0.2-0.3,0.5v0.1c-0.1,0.1-0.1,0.1-0.1,0.2
		l-0.2,0.2c-0.1,0.1-0.1,0.3-0.4,0.4c0,0.1-0.1,0.1-0.1,0.2l-0.1,0.1l-0.1,0.1v0.1l-0.2,0.2c0,0.1-0.1,0.3-0.2,0.4
		c-0.1,0.3-0.2,0.4-0.3,0.5c0,0.1-0.1,0.2-0.2,0.3l-0.2,0.2l-0.7,0.7c-0.1,0.1-0.3,0.5-0.6,1l-0.1,0.1l-0.1,0.1l-0.1,0.1l-0.2,0.2
		c-0.3,0.3-0.4,0.3-0.5,0.4l-0.2,0.2l-0.2,0.2c-0.3,0.1-0.2,0.3-0.5,0.4l-0.2,0.2c-0.1,0.1-0.2,0.1-0.3,0.2c0,0-0.1,0-0.2,0.1
		c0,0.1-0.1,0.2-0.2,0.2c-0.1,0.1-0.3,0.2-0.4,0.3c-0.2,0.2-0.4,0.3-0.5,0.4c-0.4,0.3-0.8,0.2-1.1,0.5h-0.2c0,0-0.1,0-0.2,0.1
		c-0.1,0-0.2,0.1-0.3,0.1c-0.3,0-0.4,0.1-0.7,0.1l-0.1,0.1h-0.1c-0.1,0-0.2,0.1-0.3,0.1c-0.3,0-0.4,0.1-0.7,0.1
		c-0.1,0.1-0.2,0.1-0.3,0.1h-0.1h-0.1c-0.2,0-0.3,0-0.4-0.1h-0.5c0,0-0.1,0-0.2-0.1c-0.1,0-0.1,0-0.2-0.1h-0.1c-0.1,0-0.1,0-0.1-0.1
		c-0.1,0-0.2,0-0.3-0.1c-0.1-0.1-0.2-0.2-0.3-0.2c-0.1-0.1-0.3-0.1-0.4-0.4l-0.1-0.1l-0.1-0.1c0-0.1,0-0.1-0.1-0.1
		c-0.3-0.3-0.3-0.6-0.4-0.9v-0.2c-0.1,0-0.1,0-0.1-0.1c-0.1-0.3-0.2-0.4-0.2-0.4c-0.1-0.4-0.2-0.7-0.3-0.8V50v-0.1v-0.1v-0.1v-0.2
		V49v-0.4v-0.2v-0.1v-0.1c0-0.3,0-0.6-0.1-0.8v-0.2v-0.2l0.1-0.1v-0.5c0.1-0.4,0.2-0.7,0.2-0.8v-0.1v-0.1l0.1-0.2l0.1-0.4v-0.4
		l0.1-0.5c0.3-0.7,0.3-1.1,0.4-1.6c0.1-0.3,0.1-0.5,0.2-0.8l0.1-0.5l0.1-0.4c0-0.1,0-0.3,0.1-0.4v-0.2l0.1-0.2
		c0-0.1,0.1-0.4,0.2-0.8v-0.2v-0.2l0.1-0.1v-0.1l0.1-0.1c0-0.1,0-0.2,0.1-0.3c0.1-0.2,0.2-0.4,0.3-0.7V37l0.1-0.1v-0.1
		c0-0.1,0-0.3,0.1-0.4V36c0.1-0.1,0.1-0.2,0.1-0.3v-0.1l0.1-0.1l0.3-0.9c0.1,0,0.1,0,0.1-0.1c0.1-0.1,0.1-0.1,0.1-0.2l0.1-0.4
		c0.1-0.1,0.2-0.4,0.3-0.8l0.1-0.2l0.1-0.1c0-0.2,0-0.3,0.1-0.4c0.1-0.3,0.1-0.6,0.2-0.9c0.2-0.3,0.3-0.5,0.4-0.8
		c0-0.1,0.1-0.2,0.1-0.3l0.2-0.4l0.3-0.6c0.7-1.1,1.1-2,1.8-3.1c0.3-0.4,0.4-0.8,0.7-1.1c0.1-0.3,0.2-0.2,0.3-0.5
		c-0.3,0.4,0.2-0.1,0.2-0.2c0.5-0.5,1.2-1,1.7-1.5h0.1l0.3-0.2c0.1-0.1,0.4-0.3,0.7-0.4c0.5-0.3,0.9-0.5,1.4-0.7
		c0.3-0.1,0.5-0.2,0.7-0.2l0.4-0.2l0.3-0.1h0.1h0.1c0.1,0,0.1,0,0.2,0.1h0.1c-0.3-0.1,0,0.3,0,0c0,0.1,0,0.1,0.1,0.2v0.1
		c0,0.1,0.1,0.3,0.1,0.4v0.2v0.1l-0.3,0.9c-0.3,0.8-0.4,1.6-0.7,2.4c-0.3,0.7-0.3,1.4-0.6,2.1c0,0.1,0,0.2-0.1,0.3l-0.1,0.3
		l-0.2,0.3v0.2l-0.1,0.1V29c-0.3,0.3-0.2,0.3-0.5,0.6c0,0.1-0.1,0.2-0.1,0.3l-0.1,0.1v0.2c-0.1,0.1-0.2,0.3-0.2,0.6
		c-0.1,0.1-0.1,0.3-0.2,0.4c0,0.1,0,0.2-0.1,0.2v0.2c-0.1,0.3-0.2,0.5-0.3,0.7l-0.2,0.3v0.2l-0.1,0.2l-0.3,0.6l-0.2,0.4l-0.1,0.1
		v0.2c-0.3,0.4-0.3,0.9-0.6,1.4l-0.3,0.6c-0.1,0.1-0.1,0.2-0.2,0.3v0.1v0.1l-0.1,0.1c-0.1,0.3-0.1,0.4-0.2,0.7L135,38l-0.2,0.4
		c0,0.1-0.1,0.3-0.2,0.6c0,0.1-0.1,0.4-0.2,0.8c-0.1,0.3-0.2,0.4-0.3,0.7c-0.1,0.1-0.1,0.2-0.2,0.3v0.1V41l-0.1,0.1v0.1v0.1v0.3
		c-0.1,0.3-0.1,0.5-0.2,0.8c0,0.1-0.1,0.4-0.2,0.8c-0.1,0.3-0.2,0.5-0.2,0.6c0,0,0,0.1-0.1,0.2v0.3c0,0.3-0.1,0.4-0.1,0.7v0.7
		c-0.1,0.1-0.1,0.4-0.1,0.7v0.1v0.1v0.1V47c0,0.3,0.1,0.3,0.1,0.6l0.1,0.3v0.4c0,0.3,0,0.5,0.1,0.6v0.3c0.1,0.1,0.1,0.1,0.1,0.2
		c0.1,0.1,0.2,0.3,0.3,0.4c0,0.1,0.1,0.1,0.1,0.2h0.1v0.1h0.1c0.1,0.1,0.2,0.1,0.3,0.1c0.3,0.1,0.5,0,0.8-0.1
		c0.3-0.1,0.2-0.2,0.5-0.3l0.1-0.1c0.1,0,0.1,0,0.1-0.1c0.1,0,0.1-0.1,0.2-0.1c-0.1,0-0.2,0.1-0.2,0.2h-0.1l-0.1,0.1l-0.1,0.1
		l-0.6,0.3h-0.1h-0.1h-0.1h-0.3c-0.1,0-0.1,0-0.2-0.1h-0.1v-0.1l-0.2-0.1c0.1,0,0.1,0,0.1,0.1h0.1v0.1h0.1c0.1,0.1,0.1,0.1,0.2,0.1
		c0.3,0.1,0.3,0,0.6,0c0.3-0.1,0.4-0.3,0.7-0.4l0.1-0.1c0.1,0,0.1,0,0.1-0.1l0.1-0.1c0.1-0.1,0.3-0.2,0.4-0.3c0-0.1,0-0.1,0.1-0.2
		l0.1-0.1l0.1-0.1v-0.1h0.1l0.1-0.1l0.2-0.2c0.3-0.3,0.3-0.2,0.6-0.5v-0.1h0.1v-0.1c0.1-0.1,0.2-0.2,0.2-0.3c0,0,0.1-0.1,0.2-0.4
		c0.1,0,0.1,0,0.1-0.1l0.1-0.2h0.1v-0.1l0.1-0.1v-0.1c0.1,0,0.1,0,0.2-0.1l0.3-0.3l0.2-0.2c0-0.1,0-0.1,0.1-0.1v-0.1h0.1l0.3-0.6
		c0.3-0.3,0.3-0.4,0.4-0.7c0.1-0.1,0.3-0.4,0.6-0.8c0-0.1,0.1-0.3,0.2-0.4c0.1-0.3,0.2-0.4,0.3-0.5c0.1-0.3,0.2-0.2,0.3-0.5
		c0.1-0.1,0.1-0.1,0.1-0.2c0.1-0.1,0.1-0.2,0.1-0.3c0.1-0.1,0.2-0.3,0.3-0.6v-0.1h0.1v-0.1v-0.1l0.1-0.1c0-0.1,0.1-0.2,0.2-0.3
		c0.1-0.1,0.2-0.3,0.3-0.4v-0.1c0,0.1-0.1,0.3-0.3,0.6c0.3-0.3,0.4-0.5,0.5-0.8c0.1-0.3,0.3-0.4,0.4-0.7l0.3-0.6v-0.1v-0.1
		c0.1,0,0.1,0,0.1-0.1c0.1-0.1,0.2-0.3,0.3-0.4c0.1-0.3,0.3-0.5,0.4-0.6c0.1-0.3,0.1-0.5,0.4-0.8c0.1-0.3,0.1,0-0.2,0.4
		c0,0.1-0.1,0.2-0.1,0.3l-0.1,0.1V37c-0.1,0-0.1,0-0.1,0.1c-0.1,0.3-0.3,0.4-0.4,0.7c0.1-0.3,0.2-0.2,0.3-0.5
		c0.1-0.1,0.1-0.1,0.1-0.2l0.1-0.1c0-0.1,0.1-0.1,0.1-0.2c0.3-0.4,0.3-0.7,0.6-1.1c0.1-0.3,0.1-0.7,0.4-1.2c0.1-0.3,0.2-0.4,0.2-0.5
		c0.1-0.3,0.2-0.2,0.3-0.5c0-0.1,0.1-0.2,0.1-0.3c0.1-0.1,0.1-0.2,0.2-0.3c0-0.1,0.1-0.3,0.2-0.6l0.3-0.6l0.3-0.6V31
		c0.1-0.1,0.1-0.2,0.2-0.3c-0.1,0.1-0.2,0.4-0.3,0.8c-0.1,0.3-0.1,0.5-0.4,0.8c-0.1,0.1-0.2,0.4-0.3,0.8c-0.2,0.3-0.3,0.5-0.4,0.8
		l-0.2,0.4l-0.1,0.1v0.2c0,0,0,0.1-0.1,0.2c-0.1,0.4-0.2,0.7-0.3,0.8v0.1v0.1l-0.1,0.2c-0.1,0.1-0.2,0.3-0.2,0.4
		c-0.1,0.1-0.2,0.3-0.2,0.4l-0.1,0.2l-0.1,0.2c-0.1,0.1-0.2,0.3-0.5,0.7c0.1-0.3,0.2-0.2,0.3-0.5c0.1-0.1,0.2-0.2,0.2-0.3l0.1-0.1
		v-0.1c0,0,0-0.1,0.1-0.2c0.1-0.3,0.3-0.5,0.4-0.8c0.1,0,0.1-0.1,0.1-0.2c0.1-0.1,0.1-0.1,0.1-0.2c0.1-0.3,0.1-0.2,0.2-0.5
		c0-0.1,0.1-0.3,0.2-0.6v-0.1h0.1v-0.2l0.2-0.2c0-0.1,0.1-0.3,0.2-0.6l0.3-0.6l0.3-0.6c0-0.1,0.1-0.2,0.1-0.3
		c0.1-0.1,0.1-0.2,0.2-0.3c0-0.2,0.1-0.4,0.2-0.5c0-0.1,0-0.2,0.1-0.3c0,0,0-0.1,0.1-0.2v-0.1c1.2-2.5,3.5-5.5,6.1-5.5
		c1.3,0,1.8,0.9,1.9,1.8c0.1,0.5,0,1.1-0.1,1.8v0.2c0-0.1-0.1,1.1-0.1,0.7v0.6c-0.1,0.3-0.1,0.6-0.1,1.1l-0.1,0.1v0.1V32l-0.2,0.6
		c-0.1,0.3-0.1,0.8-0.4,1.2c0,0.1-0.1,0.3-0.2,0.6c0,0.1,0,0.2-0.1,0.3v0.4c-0.1,0.1-0.1,0.3-0.1,0.6c-0.1,0.1-0.1,0.3-0.1,0.4v0.1
		l-0.1,0.1v0.2c-0.3,0.5-0.4,1-0.5,1.3c-0.1,0.4-0.1,0.9-0.4,1.4c-0.1,0.5-0.4,0.9-0.5,1.3v0.1c-0.5,0.7-1,1.6-0.8,2.2
		c0,0.1-0.1,0.2-0.2,0.2h0.1c-0.1,0-0.1,0-0.1,0.1c0.1-0.1,0.2-0.2,0.3-0.2l0.1-0.1l0.1-0.1c0,0,0.1-0.1,0.4-0.2l0.2-0.2l0.3-0.1
		c0,0,0.1,0,0.2-0.1v-0.1h0.1H153h0.1l0.1-0.1h0.1c0-0.1,0-0.1,0.1-0.1l0.2-0.2c0.2-0.2,0.4-0.3,0.5-0.4v-0.1h0.1
		c0.1,0,0.1-0.1,0.2-0.1l0.1-0.1h0.2c0.3-0.1,0.4-0.2,0.5-0.2c0.1-0.1,0.1-0.1,0.2-0.1h0.1h-0.1h0.1v-0.1h0.1l0.1-0.1l0.1-0.1
		c0.1-0.1,0.2-0.1,0.3-0.2l0.2-0.2c0.1,0,0.1,0,0.2-0.1l0.1-0.1l0.6-0.3c0.3-0.1,0.4-0.2,0.5-0.3l0.1-0.1h0.1c0-0.1,0-0.1,0.1-0.1
		c0.1-0.1,0.3-0.2,0.4-0.3c0.1,0,0.2-0.1,0.3-0.2l0.2-0.1v-0.1h0.1c0.3-0.3,0.3-0.2,0.6-0.5c0.1,0,0.2-0.1,0.3-0.2
		c0.1,0,0.1-0.1,0.2-0.1c0-0.1,0-0.1,0.1-0.1c0.3-0.3,0.3-0.2,0.6-0.5c0.1,0,0.2-0.1,0.3-0.2c0.1-0.1,0.4-0.3,0.8-0.4l0.1-0.1h0.1
		c0.1-0.1,0.3-0.1,0.4-0.1c0.3-0.1,0.5,0,0.6,0.1C163.5,36.6,161.6,37.9,160.8,38.4z M143.8,51c0.1-0.3,0.2-0.4,0.2-0.5l0.2-0.5
		l-0.2,0.2l-0.2,0.1c0,0.1-0.1,0.1-0.1,0.2l-0.6,0.6l-0.1,0.2l-0.2,0.1c-0.1,0.3-0.2,0.2-0.3,0.3c-0.1,0.2-0.2,0.4-0.5,0.7l-0.1,0.1
		l-0.1,0.1c-0.1,0-0.1,0.1-0.2,0.1c-0.1,0.2-0.2,0.3-0.3,0.3l-0.3,0.3c0,0.1-0.1,0.1-0.1,0.2l-0.2,0.1c-0.1,0.2-0.3,0.4-0.6,0.7
		l-0.3,0.3l-0.1,0.1l-0.2,0.2c0,0,0,0.1-0.1,0.2c-0.3,0.1-0.3,0.3-0.2,0.3c0.1-0.3,0.3-0.4,0.4-0.5c0-0.1,0-0.1,0.1-0.1v-0.1h0.1
		c0.1-0.1,0.1-0.1,0.1-0.2v0.1c-0.1,0-0.1,0-0.1,0.1h-0.1v0.1l-0.3,0.3c0,0.1,0.1,0,0.3-0.2l-0.3,0.3c-0.3,0.3-0.5,0.6-0.6,0.7
		c-0.1,0.1-0.1,0.2-0.2,0.3l-0.4,0.4l0.3-0.3c0-0.1,0.1-0.2,0.2-0.3c0.1,0,0,0.1-0.1,0.1c0.1,0,0.2-0.1,0.3-0.2
		c-0.1,0-0.2,0.1-0.2,0.2c-0.1,0.1-0.2,0.2-0.2,0.3c0.1,0,0.1,0,0.1-0.1s0-0.1,0.1-0.2l-0.1,0.1c-0.1,0.1-0.1,0.2-0.2,0.3l0.2-0.2
		c0-0.1,0.1-0.2,0.2-0.3c-0.1,0.1-0.6,0.7-0.3,0.4c-0.1,0.1-0.2,0.3-0.4,0.5c0.1-0.1,0.1-0.1,0.2-0.1c0-0.1,0-0.1,0.1-0.2
		c0,0,0-0.1,0.1-0.2l0.2-0.2l-0.2,0.2c0,0.1-0.1,0.2-0.2,0.3l-0.2,0.2V57h-0.1v0.1V57c0.1,0,0.2-0.1,0.2-0.2c0,0,0,0.1-0.1,0.2h-0.1
		v0.1l-0.1,0.1l0.1-0.1l-0.2,0.2c-0.3,0.3-0.6,0.5-0.7,0.6l-0.1,0.1v0.1l-0.1,0.1l-0.3,0.3c-0.2,0.2-0.4,0.4-0.5,0.7
		c-0.3,0.3-0.4,0.5-0.5,0.6c-0.1,0-0.1,0-0.1,0.1c0-0.1,0-0.1,0.1-0.1l0.1-0.1c0.1-0.1,0.2-0.3,0.3-0.4c0.1-0.2,0.3-0.4,0.6-0.7
		c0.1-0.1,0.2-0.3,0.3-0.4l0.1-0.1V58h0.1v-0.1V58l-0.1,0.1l-0.1,0.1l-0.2,0.2c0,0,0,0.1-0.1,0.2c0.1-0.1,0.1-0.1,0.1-0.2l-0.1,0.1
		c-0.3,0.3-0.4,0.4-0.5,0.7c-0.2,0.2-0.3,0.4-0.4,0.5l0.2-0.2c0-0.1,0.2-0.2,0.2-0.3c0.1,0-0.2,0.2-0.2,0.3l0.2-0.2v-0.1h0.1v-0.1
		h0.1h-0.1v0.1l-0.1,0.1h-0.1v0.1l-0.1,0.1l-0.2,0.2l-0.2,0.2l-0.2,0.3l-0.1,0.1l-0.1,0.1l-0.1,0.2c0.1-0.1,0.1-0.2,0.2-0.3
		c0.1-0.1,0.2-0.3,0.3-0.4l0.2-0.2c-0.1,0-0.1,0-0.1,0.1l-0.1,0.1l-0.2,0.2l-0.1,0.2c-0.1,0-0.1,0-0.1,0.1c-0.3,0.3-0.4,0.5-0.5,0.6
		c-0.1,0.1-0.2,0.3-0.3,0.4l-0.1,0.1l-0.1,0.2l-0.1,0.1l-0.1,0.2c0,0.1-0.1,0.2-0.2,0.3l-0.1,0.2l-0.1,0.1v0.1l-0.2,0.1
		c0,0.1,0,0.1-0.1,0.2l-0.3,0.3l-0.1,0.1l-0.1,0.1l-0.2,0.2l-0.1,0.1l-0.1,0.1v0.2c-0.1,0.1-0.2,0.3-0.2,0.4c-0.1,0-0.1,0.1-0.1,0.2
		c-0.1,0-0.1,0-0.1,0.1l-0.1,0.1v0.1h-0.1c0,0.1-0.1,0.1-0.1,0.2c-0.1,0-0.1,0-0.1,0.1c-0.1,0.1-0.1,0.1-0.2,0.1l-0.2,0.2
		c0,0.1,0,0.1-0.1,0.1c0,0.1,0,0.1-0.1,0.1V66h-0.1v0.1l-0.2,0.3l-0.7,1c-0.3,0.4-0.5,0.7-0.7,0.9l-0.1,0.2v0.1l-0.2,0.2l-0.3,0.5
		l-0.2,0.3l-0.1,0.1v0.1c-0.1,0.3-0.2,0.2-0.3,0.5l-0.1,0.3c-0.1,0.1-0.1,0.2-0.2,0.3v0.1h-0.1l-0.1,0.2l-0.1,0.1l-0.1,0.1
		c-0.1,0.3-0.2,0.2-0.3,0.5l-0.1,0.2l-0.1,0.1l-0.1,0.2v0.1l-0.1,0.1l-0.1,0.3l-0.2,0.2l-0.1,0.3c-0.3,0.4-0.4,0.7-0.7,1l-0.1,0.2
		v0.1h-0.1V75c-0.1,0.1-0.2,0.2-0.3,0.5c-0.1,0.3-0.2,0.2-0.3,0.5v0.1l-0.1,0.1v0.1v0.1l-0.2,0.6l-0.1,0.1v0.1v0.1l-0.1,0.1v0.2
		c-0.1,0.1-0.2,0.3-0.2,0.5c-0.1,0.1-0.2,0.2-0.3,0.5v0.1l-0.1,0.1c0,0.1,0,0.2-0.1,0.3c0,0.1-0.1,0.2-0.1,0.5
		c-0.1,0.1-0.2,0.3-0.2,0.5c0,0,0,0.1-0.1,0.2v0.1v0.1l-0.1,0.1v0.1V81v0.1v0.3l-0.1,0.1v0.1v-0.1l0.1-0.1V81v0.2v0.2v0.1
		c-0.1,0.1-0.1,0.3-0.1,0.5v0.2l-0.1,0.1v0.1v0.1v0.3v0.1V83c0,0.1,0.1,0.2,0.1,0.3v0.1v0.1v0.2l0.1,0.1V84v0.1V84v0.1h0.1v0.1
		l0.1,0.1v0.1l0.3,0.3c0,0.1,0.1,0.1,0.1,0.2h0.1V85h0.1l0.1,0.1c0.1,0.1,0.2,0.1,0.5,0.2h0.1c0,0.1,0,0.1,0.1,0.1
		c0.1,0,0.2,0,0.3,0.1c0.1,0,0.2,0,0.3,0.1h0.2h0.3h0.1h0.4h0.2l0.2-0.1h0.1h0.1c0,0,0.1,0,0.2-0.1h0.1c0.1,0,0.1-0.1,0.2-0.1
		c0.1-0.1,0.2-0.1,0.3-0.2c0.3-0.3,0.5-0.2,0.8-0.5c0-0.1,0.1-0.1,0.2-0.1c0-0.1,0.1-0.1,0.1-0.2l0.2-0.1l0.1-0.1l0.1-0.1h0.1v-0.1
		h0.1l0.2-0.2l0.1-0.1h0.1l0.1-0.1v-0.1c0.1,0,0.1,0,0.2-0.1l0.2-0.1v-0.1l0.1-0.1l0.1-0.1l0.2-0.2l0.1-0.2l0.2-0.2l0.1-0.1
		c0.1-0.1,0.1-0.2,0.2-0.3l0.1-0.2l0.1-0.2c0.1-0.1,0.1-0.1,0.1-0.2l0.2-0.2l0.1-0.2l0.1-0.1l0.2-0.2l0.1-0.2l0.1-0.1l0.1-0.2
		l0.1-0.1v-0.1l0.1-0.1l0.1-0.4c0.1-0.1,0.2-0.3,0.2-0.4h0.1v-0.1l0.1-0.1c0-0.1,0-0.1,0.1-0.2l0.3-0.4l0.1-0.1l0.1-0.2l0.1-0.1
		h-0.1h0.1l0.1-0.2c0-0.1,0.1-0.3,0.2-0.4c0.1-0.3,0.1-0.4,0.4-0.7c0.1-0.3,0.2-0.5,0.3-0.8l0.1-0.1l0.1-0.1v-0.1l0.1-0.1V75
		c0-0.1,0.1-0.1,0.1-0.4c0,0,0-0.1,0.1-0.2v-0.1l0.1-0.1v-0.1V74l0.1-0.1l0.1-0.2c0.1-0.1,0.1-0.2,0.2-0.3l0.1-0.2v-0.1l0.1-0.1
		v-0.1l0.1-0.1v-0.2l0.1-0.2c0-0.1,0-0.3,0.1-0.4v-0.2l0.1-0.1v-0.1c0.1-0.1,0.2-0.3,0.2-0.4c0.1-0.1,0.1-0.3,0.2-0.4l0.1-0.1v-0.2
		v0.1c0,0.1,0,0.1-0.1,0.1c0,0.1,0,0.2-0.1,0.2c0,0.1-0.1,0.2-0.1,0.3c-0.1,0.1-0.1,0.2-0.2,0.3c0.1-0.1,0.1-0.2,0.2-0.3
		c0-0.1,0.1-0.2,0.1-0.3c0.1-0.3,0.2-0.2,0.3-0.5l0.1-0.1v-0.1V70c0.1,0,0.1-0.1,0.1-0.2v-0.2c0.1-0.1,0.1-0.3,0.2-0.4V69v-0.1h0.1
		v-0.1v-0.1c0.1-0.1,0.1-0.1,0.1-0.2l0.1-0.1c0-0.1,0.1-0.2,0.1-0.3c0.1,0,0.1,0,0.1-0.1v-0.1h0.1v-0.2c0.1,0,0.1,0,0.1-0.1
		c0.1-0.1,0.1-0.1,0.1,0v-0.2l0.1-0.1v-0.1c0-0.1,0-0.1,0.1-0.2v-0.2c0.1-0.3,0.1-0.2,0.2-0.5v-0.1v0.1v0.1c0,0.1,0,0.1-0.1,0.2v0.3
		c0-0.2,0-0.3,0.1-0.4v-0.1v-0.1h0.1v-0.1V66c0.1-0.1,0.1-0.2,0.2-0.3c0-0.1,0.1-0.1,0.1-0.2c0-0.1,0-0.1,0.1-0.1v-0.1l0.1-0.1v-0.1
		c0-0.1,0.1-0.1,0.1-0.2v-0.1v0.1v-0.1c0-0.1,0.1-0.2,0.1-0.3c0-0.2,0-0.3,0.1-0.4v-0.2c0-0.1,0-0.1,0.1-0.2v-0.2v-0.1h0.1v-0.2
		c0,0,0-0.1,0.1-0.2c0,0,0-0.1,0.1-0.2c0-0.1,0.1-0.1,0.1-0.4c0,0.1-0.1,0.1-0.1,0.2v0.2c0-0.1,0-0.1,0.1-0.2c0,0.1-0.1,0.3-0.2,0.4
		c0,0.1-0.1,0.2-0.1,0.3v0.1v0.1h-0.1h0.1v-0.1c0-0.1,0-0.1,0.1-0.2v-0.1c0.1,0,0.1,0,0.1-0.1c-0.1,0.1-0.1,0.3-0.2,0.4v0.1v0.1
		l-0.1,0.1V64c0,0.1-0.1,0.2-0.1,0.5v0.1l-0.1,0.1v0.1v0.1l-0.1,0.2c0,0.1,0,0.1-0.1,0.1v0.1c-0.1,0.3-0.2,0.4-0.2,0.5h-0.1v0.1
		l-0.1,0.1v0.2l-0.1,0.1v0.3c0,0,0,0.1-0.1,0.2c0,0,0-0.1,0.1-0.2c0,0,0-0.1,0.1-0.2v-0.1v-0.1l0.1-0.1c0-0.1,0.1-0.2,0.1-0.3
		c0,0,0.1-0.1,0.2-0.4c0-0.1,0.1-0.2,0.2-0.3v-0.2c0.1,0,0.1,0,0.1-0.1v-0.1v-0.1c0-0.1,0-0.1,0.1-0.2c0-0.3,0-0.4,0.1-0.5v-0.2
		l0.1-0.2v-0.1l0.1-0.2c0-0.1,0-0.2,0.1-0.3c0,0,0.1-0.1,0.2-0.4v-0.2l0.1-0.1v-0.1v0.1v-0.1c0-0.1,0.1-0.1,0.1-0.4
		c0.1-0.3,0.2-0.5,0.2-0.7c0,0.1-0.1,0.2-0.1,0.5c-0.1,0.1-0.1,0.2-0.2,0.5v0.1v0.1l-0.1,0.1v0.2l-0.1,0.1c0,0.1-0.1,0.3-0.2,0.6
		c0-0.1,0.1-0.3,0.2-0.4c0-0.1,0-0.2,0.1-0.3c0-0.1,0.1-0.2,0.1-0.3v-0.1h0.1V62c0-0.1,0.1-0.3,0.1-0.4c0.1-0.1,0.1-0.3,0.2-0.4
		v-0.3l0.1-0.1v-0.1c0-0.1,0.1-0.2,0,0.1c0-0.1,0.1-0.1,0.1-0.4c0.1-0.1,0.1-0.3,0.2-0.4c0-0.1,0.1-0.1,0.1-0.2c0-0.1,0-0.1,0.1-0.2
		v-0.1v-0.1c0.1-0.4,0.2-0.6,0.2-0.6c0-0.1,0.1-0.1,0.1-0.2v-0.1v0.2c0,0.1-0.1,0.1-0.1,0.4c0-0.3,0.1-0.3,0.1-0.6
		c0.1-0.1,0.1-0.3,0.1-0.4c0.1-0.3,0.2-0.4,0.2-0.4c0.3-0.7,0.4-1.2,0.4-1.5c0.1,0,0.1-0.1,0.1-0.2c0,0.3,0,0.4-0.1,0.5
		c0.1-0.1,0.1-0.4,0.1-0.8c0.1,0,0.1-0.1,0.1-0.2v-0.2l0.1-0.1v-0.2c0.1-0.3,0.2-0.4,0.2-0.4c0-0.1,0.1-0.2,0.1-0.3
		c0.1-0.1,0.1-0.2,0.1-0.4c0.1-0.1,0.1-0.2,0.1-0.3v0.3c-0.1,0.1-0.1,0.2-0.1,0.3c0,0.1-0.1,0.3-0.1,0.4c0-0.1,0-0.3,0.1-0.4
		c0,0,0-0.1,0.1-0.2v-0.2c0.1-0.1,0.1-0.2,0.1-0.3v-0.2c0.1-0.1,0.1-0.2,0.1-0.4v0.4c-0.1,0.1-0.1,0.1-0.1,0.2
		c0.1-0.3,0.1-0.7,0.2-1C143.5,52,143.7,51.5,143.8,51z M134.8,58.8l0.2-0.2l0.1-0.1h0.1v-0.1c0,0,0-0.1,0.1-0.2
		c0.1-0.1,0.2-0.2,0.2-0.3c-0.1,0.3-0.2,0.2-0.3,0.5l-0.2,0.2L134.8,58.8z M138.3,56.3c-0.1,0.1-0.1,0.2-0.1,0.2
		c0.1,0,0.1,0,0.1-0.1c0-0.1,0-0.1,0.1-0.2C138.4,56.3,138.4,56.3,138.3,56.3z M142.8,41.8c0,0,0,0.1-0.1,0.2
		c-0.1,0.1-0.1,0.3-0.2,0.4c-0.1,0.3-0.2,0.4-0.2,0.4l-0.9,1.5c-0.3,0.3-0.2,0.4-0.5,0.7c0,0-0.1,0.1-0.2,0.4c0,0.1-0.1,0.2-0.2,0.3
		c0.1-0.3,0.3-0.5,0.4-0.6c0,0,0.1-0.1,0.2-0.4c-0.1,0.1-0.2,0.3-0.5,0.6c-0.3,0.4-0.5,0.7-0.6,1c-0.3,0.3-0.2,0.4-0.5,0.7
		c0.1-0.1,0.3-0.1,0.4-0.4c0.1,0,0.1,0,0.1-0.1l0.1-0.1l0.1-0.1c0.1-0.3,0.2-0.4,0.2-0.4c0.3-0.3,0.2-0.4,0.5-0.7
		c0.1-0.3,0.3-0.4,0.4-0.7l0.3-0.4l0.2-0.4c0.1-0.3,0.3-0.4,0.4-0.7l0.2-0.4c0.1-0.1,0.2-0.3,0.3-0.4
		C142.7,41.9,142.8,41.9,142.8,41.8z M140.5,71c-0.1,0.3-0.2,0.2-0.3,0.5c0-0.1,0.1-0.1,0.1-0.2c0.1-0.3,0.3-0.4,0.4-0.7
		c0-0.1,0.1-0.2,0.1-0.3h0.1v-0.2c0.1-0.3,0.3-0.4,0.3-0.7c0,0.2-0.1,0.4-0.3,0.7C140.8,70.4,140.6,70.7,140.5,71z M141.3,44.3
		c0.3-0.4,0.6-0.9,0.9-1.3l0.2-0.4c0,0,0-0.1,0.1-0.2c0,0,0-0.1,0.1-0.2v-0.1c0,0.1-0.1,0.2-0.1,0.3c-0.3,0.4-0.4,0.8-0.7,1.1
		C141.5,43.8,141.6,44,141.3,44.3z M143.7,48.6h0.1v-0.1l0.1-0.1h0.1v-0.1v0.1h-0.1v0.1C143.8,48.6,143.8,48.6,143.7,48.6
		c0,0.1,0,0.2-0.1,0.2v0.1h-0.1l0.2-0.2V48.6z M144.1,63.8c0.1-0.4,0.2-0.6,0.2-0.6v0.2L144,64l-0.2,0.4L144.1,63.8z M147.5,54.4
		l0.1-0.1c-0.1,0.1-0.1,0.1-0.1,0.2v0.1c0,0-0.1,0.1-0.2,0.4c-0.1,0.3,0,0.1,0,0v0.2c-0.3,0.5-0.4,0.9-0.5,1.4
		c-0.3,0.5-0.3,0.9-0.6,1.4c0,0.1-0.1,0.3-0.2,0.4v0.1h-0.1v0.2c-0.1,0-0.1,0.1-0.1,0.2c0-0.1,0.1-0.2,0.1-0.3
		c0.1-0.1,0.3-0.4,0.4-0.7c0.3-0.7,0.6-1.6,0.9-2.3c0.1-0.3,0.1-0.4,0.2-0.5c0-0.2,0-0.3,0.1-0.4V54.4z M146.4,33.7
		c0.1-0.1,0.1-0.3,0.2-0.4c-0.1,0.3-0.3,0.7-0.5,1L146.4,33.7z M148.8,50.8c0,0.1-0.1,0.3-0.2,0.6v0.1c0-0.1,0.1-0.2,0.1-0.3
		s0-0.1,0.1-0.1V50.8l0.3-0.6L148.8,50.8z M156.5,40.2l-0.1,0.1c-0.1,0-0.1,0.1-0.2,0.1c-0.1,0.1-0.2,0.2-0.3,0.2
		c0,0.1-0.1,0.2-0.2,0.2h-0.1v0.1h-0.2h0.2l0.1-0.1c0.1,0,0.1-0.1,0.2-0.1v-0.1h0.1c0.1-0.1,0.2-0.1,0.3-0.2c0-0.1,0-0.1,0.1-0.1
		C156.4,40.2,156.4,40.2,156.5,40.2z"/>
</g>
<g>
	<path class="st0" d="M167.9,60.5h-9.8c-0.6,0-0.9-0.5-0.5-1L199,5.1c0.2-0.4,0.6-0.5,1-0.5h7.5c0.5,0,0.8,0.3,0.8,0.8v54.3
		c0,0.5-0.3,0.8-0.8,0.8h-8.9c-0.5,0-0.8-0.3-0.8-0.8v-7.4c0-0.4-0.2-0.6-0.6-0.6h-20.9c-0.3,0-0.6,0.2-0.8,0.4l-6.5,8
		C168.7,60.3,168.3,60.5,167.9,60.5z M183.7,42.1h13.4c0.4,0,0.6-0.2,0.6-0.6v-17c0-0.6-0.5-0.8-0.8-0.3l-13.6,17.2
		C183.1,41.7,183.3,42.1,183.7,42.1z"/>
	<path class="st0" d="M216.3,59.7V21.4c0-0.5,0.3-0.8,0.8-0.8h8.9c0.5,0,0.8,0.3,0.8,0.8v2.5c0,0.6,0.3,0.6,0.8,0.3
		c2.4-2.2,5.5-3.6,8.9-3.6c1.7,0,3.8,0.3,5.5,1c0.5,0.2,0.6,0.6,0.4,1l-3.8,8.6c-0.2,0.6-0.6,0.6-1,0.3c-0.9-0.5-1.8-0.6-2.8-0.6
		c-5.7,0-7.9,5.7-7.9,13.5v15.3c0,0.5-0.3,0.8-0.8,0.8h-8.9C216.6,60.5,216.3,60.2,216.3,59.7z"/>
	<path class="st0" d="M241.2,40.6c0-11.5,8.5-20.8,20-20.8c7.7,0,13.1,3.9,16.4,9.7c0.2,0.5,0.2,0.9-0.3,1.1l-6.9,3.5
		c-0.4,0.2-0.9,0.1-1.1-0.3c-1-1.6-3.5-5-8.5-5c-6.5,0-10.4,5.5-10.4,12.1c0,6.4,4.8,11.6,10.4,11.6c4.7,0,7.5-3.1,8.5-5
		c0.2-0.4,0.6-0.6,1-0.5l6.9,1.4c0.5,0.1,0.8,0.3,0.7,0.6c-1.4,5.7-7.7,12.4-16.8,12.4C249.7,61.5,241.2,52.2,241.2,40.6z"/>
	<path class="st0" d="M312.5,24.2c0.5,0.3,0.8,0.2,0.8-0.4v-2.3c0-0.5,0.3-0.8,0.8-0.8h8.9c0.5,0,0.8,0.3,0.8,0.8v38.2
		c0,0.5-0.3,0.8-0.8,0.8h-8.9c-0.5,0-0.8-0.3-0.8-0.8v-1.6c0-0.5-0.3-0.7-0.8-0.4c-3,2.4-7,3.8-11.4,3.8c-10.5,0-19.1-9.2-19.1-20.4
		S290.6,20,301.1,20C305.5,20,309.5,21.6,312.5,24.2z M302.2,52.2c6.2,0,11.2-5.2,11.2-11.3c0-6-5-11.3-11.2-11.3
		c-6.1,0-10.9,5.4-10.9,11.3C291.3,47,296,52.2,302.2,52.2z"/>
	<path class="st0" d="M328.7,40.1c0-11.3,8.5-20.4,19.1-20.4c4.4,0,8.4,1.4,11.4,3.8c0.5,0.3,0.8,0.1,0.8-0.4V5.5
		c0-0.5,0.3-0.8,0.8-0.8h8.9c0.5,0,0.8,0.3,0.8,0.8v54.2c0,0.5-0.3,0.8-0.8,0.8h-8.9c-0.5,0-0.8-0.3-0.8-0.8v-2.3
		c0-0.6-0.3-0.7-0.7-0.4c-3.1,2.6-7,4.2-11.5,4.2C337.2,61.1,328.7,51.3,328.7,40.1z M348.8,51.6c6.2,0,11.2-5.3,11.2-11.3
		c0-6.1-5-11.3-11.2-11.3c-6.1,0-10.9,5.2-10.9,11.3C337.9,46.2,342.7,51.6,348.8,51.6z"/>
	<path class="st0" d="M375.3,40.1c0-11.7,8.7-20.8,20.2-20.8c9.7,0,17.9,7.2,18.6,15.8c0.1,0.4-0.2,0.7-0.5,1l-24,14
		c-0.4,0.2-0.5,0.6-0.1,1c2.1,1.8,4.6,2.2,6.8,2.2c5,0,7.4-2.3,9.5-5.7c0.2-0.4,0.6-0.6,1-0.5l6.8,1.2c0.5,0.1,0.8,0.3,0.7,0.6
		c-1.4,5.8-7.7,12.7-18,12.7C384.8,61.5,375.3,52,375.3,40.1z M385.5,42.5c0.2,0.5,0.6,0.6,0.9,0.3l16.4-10.1
		c0.3-0.2,0.5-0.5,0.2-0.9c-1.4-2.4-4.4-3.9-8.1-3.5c-5.4,0.6-11.7,7.1-9.6,13.7L385.5,42.5z"/>
</g>
</svg>
