<svg enable-background="new 0 0 507.5 474.6" viewBox="0 0 507.5 474.6" xmlns="http://www.w3.org/2000/svg"><g fill="#fff"><path d="m87.5 280c-48.3 0-87.5-39.2-87.5-87.5 0-46.5 36.3-84.6 82.2-87.3 13.8-60.3 67.7-105.2 132.2-105.2 37.4 0 71.3 15.2 95.8 39.7 9.8-3 20.2-4.7 31-4.7 58 0 105 47 105 105 0 3-.1 5.9-.4 8.9 34.4 2.1 61.6 30.6 61.6 65.5 0 28.2-17.8 52.2-42.7 61.5-5.6 2.6-11.9 4.1-18.5 4.1zm63.4 94.4c-10.5-6-14-19.4-8-29.9 4-7 19.8-19.7 47.4-38.3-2.3 33.2-5.5 53.2-9.5 60.2-6 10.5-19.4 14.1-29.9 8zm262.5 0c-10.5-6-14-19.4-8-29.9 4-7 19.8-19.7 47.4-38.3-2.3 33.2-5.5 53.2-9.5 60.2-6 10.5-19.4 14.1-29.9 8zm-341.2 0c-10.5-6-14-19.4-8-29.9 4-7 19.8-19.7 47.4-38.3-2.3 33.2-5.5 53.2-9.5 60.2-6.1 10.5-19.4 14.1-29.9 8zm253.7 0c-10.5-6-14-19.4-8-29.9 4-7 19.8-19.7 47.4-38.3-2.3 33.2-5.5 53.2-9.5 60.2-6 10.5-19.4 14.1-29.9 8zm-236.2 87.5c-10.5-6-14-19.4-8-29.9 4-7 19.8-19.7 47.4-38.3-2.3 33.2-5.5 53.2-9.5 60.2-6.1 10.5-19.4 14.1-29.9 8zm253.7 0c-10.5-6-14-19.4-8-29.9 4-7 19.8-19.7 47.4-38.3-2.3 33.2-5.5 53.2-9.5 60.2-6 10.5-19.4 14.1-29.9 8z"/><path d="m231.4 315h58.9l-21.4 59.4 21.4-.4-80.3 100.6 22.6-100.2h-20.8z"/></g></svg>