<svg enable-background="new 0 0 267.6 420.1" viewBox="0 0 267.6 420.1" xmlns="http://www.w3.org/2000/svg"><g fill="#fff"><path d="m55.9 190.9h-6.2c-1.3-.4-2.8-.1-3.9.8-1.1.8-1.8 2.2-1.8 3.6s.7 2.7 1.8 3.6c1.1.8 2.5 1.1 3.9.8h6.2c2-.5 3.3-2.3 3.3-4.3 0-2.2-1.3-3.9-3.3-4.5z"/><path d="m111.5 190.9h-6.4c-2 .5-3.3 2.3-3.3 4.3s1.4 3.8 3.3 4.3h6.3c2-.5 3.3-2.3 3.3-4.3.1-2-1.3-3.7-3.2-4.3z"/><path d="m132.6 190.9h-6.3c-2 .5-3.3 2.3-3.3 4.3s1.4 3.8 3.3 4.3h6.3c2-.5 3.3-2.3 3.3-4.3s-1.3-3.7-3.3-4.3z"/><path d="m228.8 0h-208.7c-11.3 0-20.1 11.8-20.1 26.9v20.1c-.2 3.9.7 7.8 2.7 11.2s4.9 6.1 8.4 7.9l13.9 5.9c3.4 1.4 5.6 4.6 5.7 8.2v90.3c.1 2.3-.5 4.7-1.8 6.6l-22.6 23.3c-3.9 4.4-6 10.1-5.9 16v33c-.3 6.2 2 12.2 6.2 16.7l5.4 4.9c1.4 1.9 2 4.3 1.9 6.7v103.7c0 10.3 4.1 20.1 11.3 27.4 7.3 7.3 17.1 11.4 27.4 11.4h176.2c10.3 0 20.2-4.1 27.4-11.4 7.3-7.3 11.4-17.1 11.4-27.4v-342.6c0-10.3-4.1-20.2-11.4-27.4-7.2-7.3-17.1-11.4-27.4-11.4zm-208.3 48.1c-1.3 0-2.3-1-2.3-2.3v-12-7.2c.1-4.9 4.1-8.7 9-8.7h103c2.4 0 4.7.9 6.3 2.6 1.7 1.7 2.6 4 2.6 6.3v7.2 11.9c0 .6-.2 1.2-.7 1.7-.4.4-1 .7-1.7.7zm1.2 203.4c-2 0-3.5-1.6-3.5-3.5v-19c0-2 1.6-3.6 3.5-3.6h113.9c.9 0 1.9.4 2.5 1.1.7.7 1 1.6 1 2.5v19.2c0 .9-.4 1.8-1 2.5-.7.7-1.6 1-2.5 1zm131.1 130.1c0 5.5-2.2 10.7-6 14.6-3.9 3.9-9.1 6-14.6 6h-79.4c-5.5 0-10.8-2.2-14.7-6.1s-6.1-9.2-6.1-14.8v-104.6c0-1.1.4-2.1 1.2-2.9s1.8-1.2 2.9-1.2h112.7c2.3 0 4.1 1.8 4.1 4.1zm5.3-194.9-13.4 13.7c-.5.5-.9 1-1.3 1.5-3 3.6-7.4 5.6-12.1 5.5h-101.4c-1 0-1.8-.5-2.2-1.4s-.2-1.9.5-2.6l13.4-13.8 1.1-1.3c1.4-1.8 3.4-2.8 5.6-2.9h109.3c.3 0 .6.2.7.5s.1.6-.2.8zm4.5-30.6c0 4.8-3.9 8.7-8.7 8.7h-89.9c-4.8 0-8.7-3.9-8.7-8.7v-61.2c0-4.8 3.9-8.7 8.7-8.7h89.9c4.8 0 8.7 3.9 8.7 8.7z"/></g></svg>